<?xml version="1.0" standalone="no"?>
<!DOCTYPE svg PUBLIC "-//W3C//DTD SVG 1.1//EN" "http://www.w3.org/Graphics/SVG/1.1/DTD/svg11.dtd" >
<svg>
<metadata>
Created by FontForge 20090914 at Tue Jul 30 14:01:34 2013
 By www-data
Copyright (c) 2011 by Tarek Atrissi Design. All rights reserved.
</metadata>
<defs>
<font id="Al-Jazeera-Arabic-Regular" horiz-adv-x="397" >
  <font-face 
    font-family="Al-Jazeera-Arabic-Regular"
    font-weight="400"
    font-stretch="normal"
    units-per-em="1000"
    panose-1="1 0 5 0 0 0 0 2 0 6"
    ascent="800"
    descent="-200"
    bbox="-137 -489 1797 1054.14"
    underline-thickness="29"
    underline-position="-451"
    unicode-range="U+0020-U+FEFC"
  />
<missing-glyph horiz-adv-x="500" 
d="M62 0v562h375v-562h-375zM125 62h250v438h-250v-438z" />
    <glyph glyph-name="shaddehdamatan" unicode="&#x64c;&#x651;" horiz-adv-x="267" arabic-form="isolated" 
d="M66 783c0 -5.33301 -0.164062 -11.3311 -0.49707 -17.998s0 -13.334 1 -20.001s3.16699 -12.167 6.5 -16.5s8.33301 -6.5 15 -6.5c9.33301 0 16.166 3.66699 20.499 11s6.5 16 6.5 26v32l41 11v-30c0 -9.33301 1.66699 -16.833 5 -22.5s8.66602 -8.5 15.999 -8.5
c8.66699 0 15.167 3.16699 19.5 9.5s6.5 14.833 6.5 25.5v34l41 11v-39c0 -30 -6.33301 -51.833 -19 -65.5s-27.334 -20.5 -44.001 -20.5c-7.33301 0 -15.666 1.16699 -24.999 3.5s-16.333 6.16602 -21 11.499c-12.667 -21.333 -29 -32 -49 -32
c-20.667 0 -34.834 7 -42.501 21s-11.5 28.667 -11.5 44v29zM191.003 961.002c-3.33301 13.333 -7.16699 24.834 -11.5 34.501s-9.16602 14.5 -14.499 14.5c-4.66699 -1.33301 -8.33398 -3.83301 -11.001 -7.5s-4.66699 -7.83398 -6 -12.501
c-2 -5.33301 -3.33301 -11 -4 -17c0 -6 2 -10.5 6 -13.5s9 -4.5 15 -4.5c4 0 8.16699 0.666992 12.5 2zM43.002 877.003c6 8 14.6719 14.8301 26.0049 20.4971s21.666 8.5 30.999 8.5c6.66699 0 14 -2.5 22 -7.5s14.333 -12.167 19 -21.5
c10.667 4.66699 20.167 10.834 28.5 18.501s14.5 16.834 18.5 27.501c-4 -0.666992 -9.33301 -1.5 -16 -2.5s-13.334 -1.5 -20.001 -1.5c-12 0 -22.167 2.5 -30.5 7.5s-12.5 15.833 -12.5 32.5c0 12 2 23.5 6 34.5s9.16699 20.667 15.5 29s13.333 15 21 20
s15.167 7.5 22.5 7.5s14.166 -2.66699 20.499 -8s11.666 -12.166 15.999 -20.499s7.83301 -17.833 10.5 -28.5s4 -21.334 4 -32.001c0 -20 -2.5 -37.167 -7.5 -51.5s-11.833 -26.5 -20.5 -36.5s-19.334 -18.5 -32.001 -25.5s-26.334 -13.5 -41.001 -19.5
c-5.33301 17.333 -10.833 28.833 -16.5 34.5s-12.167 8.5 -19.5 8.5c-6.66699 0 -14.667 -3.16699 -24 -9.5s-16.666 -12.166 -21.999 -17.499z" />
    <glyph glyph-name="shaddehkasratan" unicode="&#x64d;&#x651;" horiz-adv-x="255" arabic-form="isolated" 
d="M59 986c0 -5.33301 -0.164062 -11.3311 -0.49707 -17.998s0 -13.334 1 -20.001s3.16699 -12.167 6.5 -16.5s8.33301 -6.5 15 -6.5c9.33301 0 16.166 3.66699 20.499 11s6.5 16 6.5 26v32l41 11v-30c0 -9.33301 1.66699 -16.833 5 -22.5s8.66602 -8.5 15.999 -8.5
c8.66699 0 15.167 3.16699 19.5 9.5s6.5 14.833 6.5 25.5v34l41 11v-39c0 -30 -6.33301 -51.833 -19 -65.5s-27.334 -20.5 -44.001 -20.5c-7.33301 0 -15.666 1.16699 -24.999 3.5s-16.333 6.16602 -21 11.499c-12.667 -21.333 -29 -32 -49 -32
c-20.667 0 -34.834 7 -42.501 21s-11.5 28.667 -11.5 44v29zM22.0029 736.002l203 57v-45l-203 -57v45zM22.0029 819.002l203 57v-45l-203 -57v45z" />
    <glyph glyph-name="shaddehfatha" unicode="&#x64e;&#x651;" horiz-adv-x="255" arabic-form="isolated" 
d="M66 783c0 -5.33301 -0.164062 -11.3311 -0.49707 -17.998s0 -13.334 1 -20.001s3.16699 -12.167 6.5 -16.5s8.33301 -6.5 15 -6.5c9.33301 0 16.166 3.66699 20.499 11s6.5 16 6.5 26v32l41 11v-30c0 -9.33301 1.66699 -16.833 5 -22.5s8.66602 -8.5 15.999 -8.5
c8.66699 0 15.167 3.16699 19.5 9.5s6.5 14.833 6.5 25.5v34l41 11v-39c0 -30 -6.33301 -51.833 -19 -65.5s-27.334 -20.5 -44.001 -20.5c-7.33301 0 -15.666 1.16699 -24.999 3.5s-16.333 6.16602 -21 11.499c-12.667 -21.333 -29 -32 -49 -32
c-20.667 0 -34.834 7 -42.501 21s-11.5 28.667 -11.5 44v29zM38.0029 856.002l203 57v-45l-203 -57v45z" />
    <glyph glyph-name="shaddehdamma" unicode="&#x64f;&#x651;" horiz-adv-x="260" arabic-form="isolated" 
d="M66 783c0 -5.33301 -0.164062 -11.3311 -0.49707 -17.998s0 -13.334 1 -20.001s3.16699 -12.167 6.5 -16.5s8.33301 -6.5 15 -6.5c9.33301 0 16.166 3.66699 20.499 11s6.5 16 6.5 26v32l41 11v-30c0 -9.33301 1.66699 -16.833 5 -22.5s8.66602 -8.5 15.999 -8.5
c8.66699 0 15.167 3.16699 19.5 9.5s6.5 14.833 6.5 25.5v34l41 11v-39c0 -30 -6.33301 -51.833 -19 -65.5s-27.334 -20.5 -44.001 -20.5c-7.33301 0 -15.666 1.16699 -24.999 3.5s-16.333 6.16602 -21 11.499c-12.667 -21.333 -29 -32 -49 -32
c-20.667 0 -34.834 7 -42.501 21s-11.5 28.667 -11.5 44v29zM81.0029 872.002c15.333 5.33301 30.832 11.999 46.499 19.999s26.5 19.667 32.5 35c-5.33301 -0.666992 -12.166 -1.66699 -20.499 -3s-16.666 -1.5 -24.999 -0.5s-15.833 3.66699 -22.5 8
s-10.334 11.833 -11.001 22.5c-1.33301 12.667 -0.166016 25 3.50098 37s8.5 22.5 14.5 31.5s13 16.333 21 22s16 8.83398 24 9.50098c6 0.666992 12 -1 18 -5s11.5 -9.5 16.5 -16.5s9.16699 -15 12.5 -24s5.33301 -18.167 6 -27.5
c1.33301 -26 -0.833984 -47.333 -6.50098 -64s-14 -30.5 -25 -41.5s-23.833 -19.833 -38.5 -26.5s-30 -13 -46 -19v42zM162.002 965.001c-2.66699 13.333 -6.33203 24.998 -10.999 34.998s-9.66699 14.667 -15 14c-6 -1.33301 -10.667 -6.16602 -14 -14.499
s-5.33301 -14.5 -6 -18.5c-1.33301 -12.667 3.16699 -19.667 13.5 -21s21.166 0.333984 32.499 5.00098z" />
    <glyph glyph-name="shaddehkasra" unicode="&#x650;&#x651;" horiz-adv-x="265" arabic-form="isolated" 
d="M38 736l203 57v-45l-203 -57v45zM66 899c0 -5.33301 -0.164062 -11.3311 -0.49707 -17.998s0 -13.334 1 -20.001s3.16699 -12.167 6.5 -16.5s8.33301 -6.5 15 -6.5c9.33301 0 16.166 3.66699 20.499 11s6.5 16 6.5 26v32l41 11v-30c0 -9.33301 1.66699 -16.833 5 -22.5
s8.66602 -8.5 15.999 -8.5c8.66699 0 15.167 3.16699 19.5 9.5s6.5 14.833 6.5 25.5v34l41 11v-39c0 -30 -6.33301 -51.833 -19 -65.5s-27.334 -20.5 -44.001 -20.5c-7.33301 0 -15.666 1.16699 -24.999 3.5s-16.333 6.16602 -21 11.499c-12.667 -21.333 -29 -32 -49 -32
c-20.667 0 -34.834 7 -42.501 21s-11.5 28.667 -11.5 44v29z" />
    <glyph glyph-name="lammeeminitial" unicode="&#xfedf;&#xfee4;" horiz-adv-x="858" arabic-form="initial" 
d="M658 72l0.00195312 570l77 22v-664h-310c-9.33301 -17.333 -17.166 -28.166 -23.499 -32.499s-14.5 -6.5 -24.5 -6.5c-8.66699 0 -18 2.33301 -28 7c-20 8 -46.833 19.5 -80.5 34.5s-74.834 34.833 -123.501 59.5c-11.333 -25.333 -25 -42 -41 -50s-38 -12 -66 -12h-53
v72h79c20 46 42 89.167 66 129.5s47.167 75.5 69.5 105.5s43 53.667 62 71s34.167 26 45.5 26c16 0 30.667 -6.5 44 -19.5s25.5 -29.5 36.5 -49.5s20.5 -42.333 28.5 -67s14.667 -48.667 20 -72s9.16602 -44.833 11.499 -64.5s3.16602 -34.5 2.49902 -44.5
c0 -2 -0.166992 -4.33301 -0.5 -7s-0.5 -5.33398 -0.5 -8.00098h209zM375.002 49c-2.66699 30 -6.16699 60.1699 -10.5 90.5029s-9.5 57.666 -15.5 81.999s-13 44.166 -21 59.499s-17 23 -27 23c-9.33301 0 -20.5 -7 -33.5 -21s-25.833 -30.167 -38.5 -48.5
s-24 -36.333 -34 -54s-16.667 -29.834 -20 -36.501c14 -10.667 29.667 -20.834 47 -30.501s35 -18.667 53 -27s35.667 -15.666 53 -21.999s33 -11.5 47 -15.5z" />
    <glyph glyph-name="aleffathatanfina" unicode="&#xfe8e;&#x64b;" horiz-adv-x="248" arabic-form="final" 
d="M74 642l77 22v-592h112v-72h-189v642zM24 736l203 57v-45l-203 -57v45zM24 819l203 57v-45l-203 -57v45z" />
    <glyph glyph-name="aleffathataniso" unicode="&#x627;&#x64b;" horiz-adv-x="208" arabic-form="isolated" 
d="M61 642l77 22v-664h-77v642zM0 736l203 57v-45l-203 -57v45zM0 819l203 57v-45l-203 -57v45z" />
    <glyph glyph-name="lilah" unicode="&#xfedf;&#xfee0;&#x651;&#x670;&#xfeea;" horiz-adv-x="1150" arabic-form="isolated" 
d="M783 72l234.001 0.00195312v570l77 22v-664h-671c-14.667 9.33301 -24.834 19.166 -30.501 29.499s-8.5 15.833 -8.5 16.5c0 -0.666992 -1.5 -3.5 -4.5 -8.5s-8.83301 -10.167 -17.5 -15.5s-21.167 -10.333 -37.5 -15s-37.833 -7 -64.5 -7c-64 0 -111 16.167 -141 48.5
s-45 76.833 -45 133.5c0 26.667 7.33301 52.667 22 78s37.667 48.5 69 69.5s71.333 39.167 120 54.5s106.667 26.666 174 33.999v-346h247v570l77 22v-592zM160.001 181.002c0 -23.333 2.83105 -42.166 8.49805 -56.499s12.834 -25.333 21.501 -33
s18.5 -12.834 29.5 -15.501s21.833 -4 32.5 -4h130v259c-40.667 -7.33301 -75.167 -16.333 -103.5 -27s-51.166 -22.5 -68.499 -35.5s-30 -26.833 -38 -41.5s-12 -30 -12 -46z" />
    <glyph glyph-name="lamalefmaddaaboveiso" unicode="&#xfedf;&#xfe82;" horiz-adv-x="499" arabic-form="isolated" 
d="M51 655c16.667 -15.333 36.8359 -32.333 60.5029 -51l73 -60.5c25 -21.667 50 -44.5 75 -68.5s47.5 -49 67.5 -75c1.33301 1.33301 3.66602 4.83301 6.99902 10.5s6.83301 12.5 10.5 20.5s6.83398 16.667 9.50098 26s4 18 4 26v159l77 22v-184
c0 -53.333 -20 -103 -60 -149c55.333 -85.333 83 -161.333 83 -228v-103h-423v119c24.667 16 49.167 33.833 73.5 53.5s47.166 39.167 68.499 58.5s40.833 37.833 58.5 55.5l43.5 43.5c-18.667 26 -39.834 50.833 -63.501 74.5s-47.834 46 -72.501 67s-48.667 40.333 -72 58
l-61 47.5zM386.002 72c0 14.667 -1.66992 30.666 -5.00293 47.999s-8 34.5 -14 51.5s-13.167 33.5 -21.5 49.5s-17.5 30 -27.5 42l-45.5 -47c-16.333 -17.333 -33.666 -34.666 -51.999 -51.999s-37.166 -34 -56.499 -50s-38.666 -30 -57.999 -42h280zM-24.001 782.999
c17.333 -9.33301 43.5 -15.6689 78.5 -19.002s73.5 -1.33301 115.5 6l36 6.5l36 6.5c58.667 10.667 106.667 10.834 144 0.500977s66.666 -31.833 87.999 -64.5c-16.667 9.33301 -41.667 16 -75 20s-71 2.33301 -113 -5c-13.333 -2.66699 -27 -5.66699 -41 -9
s-27.667 -6 -41 -8c-55.333 -9.33301 -102.166 -8.66602 -140.499 2.00098s-67.5 32 -87.5 64z" />
    <glyph glyph-name="lamalefmaddaabovefina" unicode="&#xfee0;&#xfe82;" horiz-adv-x="659" arabic-form="final" 
d="M112 508c3.33301 2 8.83105 4.50098 16.498 7.50098s15.167 6.16699 22.5 9.5c8.66699 3.33301 17.667 7 27 11c21.333 -33.333 41.333 -71.833 60 -115.5s35.834 -87.334 51.501 -131.001s29.167 -84.834 40.5 -123.501l27 -94h10c12.667 0 24.5 1.33301 35.5 4
s20.5 7.5 28.5 14.5s14.333 17 19 30s7 29.5 7 49.5v470l77 24v-532c0 -21.333 5.5 -36.666 16.5 -45.999s25.5 -14 43.5 -14h80v-72h-35c-32 0 -59.333 4.5 -82 13.5s-39.667 23.5 -51 43.5c-7.33301 -9.33301 -15.166 -17.666 -23.499 -24.999s-18.333 -13.333 -30 -18
s-25.5 -8.16699 -41.5 -10.5s-35.667 -3.5 -59 -3.5h-332l24 72h240c-5.33301 23.333 -12.833 52.5 -22.5 87.5s-21.667 72.167 -36 111.5s-31 79.666 -50 120.999s-40.167 80 -63.5 116zM-89.002 644.001c17.333 -9.33301 43.5 -15.6689 78.5 -19.002
s73.5 -1.33301 115.5 6l36 6.5l36 6.5c58.667 10.667 106.667 10.834 144 0.500977s66.666 -31.833 87.999 -64.5c-16.667 9.33301 -41.667 16 -75 20s-71 2.33301 -113 -5c-13.333 -2.66699 -27 -5.66699 -41 -9s-27.667 -6 -41 -8
c-55.333 -9.33301 -102.166 -8.66602 -140.499 2.00098s-67.5 32 -87.5 64z" />
    <glyph glyph-name="lamalefhamzaaboveiso" unicode="&#xfedf;&#xfe84;" horiz-adv-x="499" arabic-form="isolated" 
d="M51 655c16.667 -15.333 36.8359 -32.333 60.5029 -51l73 -60.5c25 -21.667 50 -44.5 75 -68.5s47.5 -49 67.5 -75c1.33301 1.33301 3.66602 4.83301 6.99902 10.5s6.83301 12.5 10.5 20.5s6.83398 16.667 9.50098 26s4 18 4 26v159l77 22v-184
c0 -53.333 -20 -103 -60 -149c55.333 -85.333 83 -161.333 83 -228v-103h-423v119c24.667 16 49.167 33.833 73.5 53.5s47.166 39.167 68.499 58.5s40.833 37.833 58.5 55.5l43.5 43.5c-18.667 26 -39.834 50.833 -63.501 74.5s-47.834 46 -72.501 67s-48.667 40.333 -72 58
l-61 47.5zM386.002 72c0 14.667 -1.66992 30.666 -5.00293 47.999s-8 34.5 -14 51.5s-13.167 33.5 -21.5 49.5s-17.5 30 -27.5 42l-45.5 -47c-16.333 -17.333 -33.666 -34.666 -51.999 -51.999s-37.166 -34 -56.499 -50s-38.666 -30 -57.999 -42h280zM137.999 733.999
l68.001 20.999c-14.667 3.33301 -26 12.333 -34 27s-12 28.334 -12 41.001c0 18 3.66699 34.5 11 49.5s17 27.833 29 38.5s25.5 19.167 40.5 25.5s30.167 9.83301 45.5 10.5s30 -1.33301 44 -6s26 -13 36 -25l-42 -38c-8.66699 6.66699 -19 11 -31 13s-23.5 1.5 -34.5 -1.5
s-20.333 -8.5 -28 -16.5s-11.5 -18 -11.5 -30c0 -10 2.16699 -18.833 6.5 -26.5s9.66602 -14.167 15.999 -19.5s13 -9.5 20 -12.5s13.5 -4.83301 19.5 -5.5l89 26v-53l-232 -69v51z" />
    <glyph glyph-name="lamalefhamzaabovefina" unicode="&#xfee0;&#xfe84;" horiz-adv-x="659" arabic-form="final" 
d="M112 508c3.33301 2 8.83105 4.50098 16.498 7.50098s15.167 6.16699 22.5 9.5c8.66699 3.33301 17.667 7 27 11c21.333 -33.333 41.333 -71.833 60 -115.5s35.834 -87.334 51.501 -131.001s29.167 -84.834 40.5 -123.501l27 -94h10c12.667 0 24.5 1.33301 35.5 4
s20.5 7.5 28.5 14.5s14.333 17 19 30s7 29.5 7 49.5v470l77 24v-532c0 -21.333 5.5 -36.666 16.5 -45.999s25.5 -14 43.5 -14h80v-72h-35c-32 0 -59.333 4.5 -82 13.5s-39.667 23.5 -51 43.5c-7.33301 -9.33301 -15.166 -17.666 -23.499 -24.999s-18.333 -13.333 -30 -18
s-25.5 -8.16699 -41.5 -10.5s-35.667 -3.5 -59 -3.5h-332l24 72h240c-5.33301 23.333 -12.833 52.5 -22.5 87.5s-21.667 72.167 -36 111.5s-31 79.666 -50 120.999s-40.167 80 -63.5 116zM47.998 615.001l68.001 20.999c-14.667 3.33301 -26 12.333 -34 27
s-12 28.334 -12 41.001c0 18 3.66699 34.5 11 49.5s17 27.833 29 38.5s25.5 19.167 40.5 25.5s30.167 9.83301 45.5 10.5s30 -1.33301 44 -6s26 -13 36 -25l-42 -38c-8.66699 6.66699 -19 11 -31 13s-23.5 1.5 -34.5 -1.5s-20.333 -8.5 -28 -16.5s-11.5 -18 -11.5 -30
c0 -10 2.16699 -18.833 6.5 -26.5s9.66602 -14.167 15.999 -19.5s13 -9.5 20 -12.5s13.5 -4.83301 19.5 -5.5l89 26v-53l-232 -69v51z" />
    <glyph glyph-name="lamalefhamzabelowiso" unicode="&#xfedf;&#xfe88;" horiz-adv-x="499" arabic-form="isolated" 
d="M51 655c16.667 -15.333 36.8359 -32.333 60.5029 -51l73 -60.5c25 -21.667 50 -44.5 75 -68.5s47.5 -49 67.5 -75c1.33301 1.33301 3.66602 4.83301 6.99902 10.5s6.83301 12.5 10.5 20.5s6.83398 16.667 9.50098 26s4 18 4 26v159l77 22v-184
c0 -53.333 -20 -103 -60 -149c55.333 -85.333 83 -161.333 83 -228v-103h-423v119c24.667 16 49.167 33.833 73.5 53.5s47.166 39.167 68.499 58.5s40.833 37.833 58.5 55.5l43.5 43.5c-18.667 26 -39.834 50.833 -63.501 74.5s-47.834 46 -72.501 67s-48.667 40.333 -72 58
l-61 47.5zM386.002 72c0 14.667 -1.66992 30.666 -5.00293 47.999s-8 34.5 -14 51.5s-13.167 33.5 -21.5 49.5s-17.5 30 -27.5 42l-45.5 -47c-16.333 -17.333 -33.666 -34.666 -51.999 -51.999s-37.166 -34 -56.499 -50s-38.666 -30 -57.999 -42h280zM100.999 -273.001
l68.001 20.999c-14.667 3.33301 -26 12.333 -34 27s-12 28.334 -12 41.001c0 18 3.66699 34.5 11 49.5s17 27.833 29 38.5s25.5 19.167 40.5 25.5s30.167 9.83301 45.5 10.5s30 -1.33301 44 -6s26 -13 36 -25l-42 -38c-8.66699 6.66699 -19 11 -31 13s-23.5 1.5 -34.5 -1.5
s-20.333 -8.5 -28 -16.5s-11.5 -18 -11.5 -30c0 -10 2.16699 -18.833 6.5 -26.5s9.66602 -14.167 15.999 -19.5s13 -9.5 20 -12.5s13.5 -4.83301 19.5 -5.5l89 26v-53l-232 -69v51z" />
    <glyph glyph-name="lamalefhamzabelowfina" unicode="&#xfee0;&#xfe88;" horiz-adv-x="659" arabic-form="final" 
d="M112 508c3.33301 2 8.83105 4.50098 16.498 7.50098s15.167 6.16699 22.5 9.5c8.66699 3.33301 17.667 7 27 11c21.333 -33.333 41.333 -71.833 60 -115.5s35.834 -87.334 51.501 -131.001s29.167 -84.834 40.5 -123.501l27 -94h10c12.667 0 24.5 1.33301 35.5 4
s20.5 7.5 28.5 14.5s14.333 17 19 30s7 29.5 7 49.5v470l77 24v-532c0 -21.333 5.5 -36.666 16.5 -45.999s25.5 -14 43.5 -14h80v-72h-35c-32 0 -59.333 4.5 -82 13.5s-39.667 23.5 -51 43.5c-7.33301 -9.33301 -15.166 -17.666 -23.499 -24.999s-18.333 -13.333 -30 -18
s-25.5 -8.16699 -41.5 -10.5s-35.667 -3.5 -59 -3.5h-332l24 72h240c-5.33301 23.333 -12.833 52.5 -22.5 87.5s-21.667 72.167 -36 111.5s-31 79.666 -50 120.999s-40.167 80 -63.5 116zM130.998 -272.999l68.001 20.999c-14.667 3.33301 -26 12.333 -34 27
s-12 28.334 -12 41.001c0 18 3.66699 34.5 11 49.5s17 27.833 29 38.5s25.5 19.167 40.5 25.5s30.167 9.83301 45.5 10.5s30 -1.33301 44 -6s26 -13 36 -25l-42 -38c-8.66699 6.66699 -19 11 -31 13s-23.5 1.5 -34.5 -1.5s-20.333 -8.5 -28 -16.5s-11.5 -18 -11.5 -30
c0 -10 2.16699 -18.833 6.5 -26.5s9.66602 -14.167 15.999 -19.5s13 -9.5 20 -12.5s13.5 -4.83301 19.5 -5.5l89 26v-53l-232 -69v51z" />
    <glyph glyph-name="lamalefiso" unicode="&#xfedf;&#xfe8e;" horiz-adv-x="499" arabic-form="isolated" 
d="M51 655c16.667 -15.333 36.8359 -32.333 60.5029 -51l73 -60.5c25 -21.667 50 -44.5 75 -68.5s47.5 -49 67.5 -75c1.33301 1.33301 3.66602 4.83301 6.99902 10.5s6.83301 12.5 10.5 20.5s6.83398 16.667 9.50098 26s4 18 4 26v159l77 22v-184
c0 -53.333 -20 -103 -60 -149c55.333 -85.333 83 -161.333 83 -228v-103h-423v119c24.667 16 49.167 33.833 73.5 53.5s47.166 39.167 68.499 58.5s40.833 37.833 58.5 55.5l43.5 43.5c-18.667 26 -39.834 50.833 -63.501 74.5s-47.834 46 -72.501 67s-48.667 40.333 -72 58
l-61 47.5zM386.002 72c0 14.667 -1.66992 30.666 -5.00293 47.999s-8 34.5 -14 51.5s-13.167 33.5 -21.5 49.5s-17.5 30 -27.5 42l-45.5 -47c-16.333 -17.333 -33.666 -34.666 -51.999 -51.999s-37.166 -34 -56.499 -50s-38.666 -30 -57.999 -42h280z" />
    <glyph glyph-name="lamaleffina" unicode="&#xfee0;&#xfe8e;" horiz-adv-x="659" arabic-form="final" 
d="M112 508c3.33301 2 8.83105 4.50098 16.498 7.50098s15.167 6.16699 22.5 9.5c8.66699 3.33301 17.667 7 27 11c21.333 -33.333 41.333 -71.833 60 -115.5s35.834 -87.334 51.501 -131.001s29.167 -84.834 40.5 -123.501l27 -94h10c12.667 0 24.5 1.33301 35.5 4
s20.5 7.5 28.5 14.5s14.333 17 19 30s7 29.5 7 49.5v470l77 24v-532c0 -21.333 5.5 -36.666 16.5 -45.999s25.5 -14 43.5 -14h80v-72h-35c-32 0 -59.333 4.5 -82 13.5s-39.667 23.5 -51 43.5c-7.33301 -9.33301 -15.166 -17.666 -23.499 -24.999s-18.333 -13.333 -30 -18
s-25.5 -8.16699 -41.5 -10.5s-35.667 -3.5 -59 -3.5h-332l24 72h240c-5.33301 23.333 -12.833 52.5 -22.5 87.5s-21.667 72.167 -36 111.5s-31 79.666 -50 120.999s-40.167 80 -63.5 116z" />
    <glyph glyph-name="shaddahfathatan" unicode="&#x64b;&#x651;" horiz-adv-x="255" 
d="M66 783c0 -5.33301 -0.164062 -11.3311 -0.49707 -17.998s0 -13.334 1 -20.001s3.16699 -12.167 6.5 -16.5s8.33301 -6.5 15 -6.5c9.33301 0 16.166 3.66699 20.499 11s6.5 16 6.5 26v32l41 11v-30c0 -9.33301 1.66699 -16.833 5 -22.5s8.66602 -8.5 15.999 -8.5
c8.66699 0 15.167 3.16699 19.5 9.5s6.5 14.833 6.5 25.5v34l41 11v-39c0 -30 -6.33301 -51.833 -19 -65.5s-27.334 -20.5 -44.001 -20.5c-7.33301 0 -15.666 1.16699 -24.999 3.5s-16.333 6.16602 -21 11.499c-12.667 -21.333 -29 -32 -49 -32
c-20.667 0 -34.834 7 -42.501 21s-11.5 28.667 -11.5 44v29zM30.0029 852.002l203 57v-45l-203 -57v45zM30.0029 935.002l203 57v-45l-203 -57v45z" />
    <glyph glyph-name="faya" unicode="&#xfed3;&#xfef2;" horiz-adv-x="1420" 
d="M1369 105c0 -70 -25.002 -105.002 -75.002 -105.002h-529c0 54.667 -2.5 101.5 -7.5 140.5s-11.667 71.5 -20 97.5s-17.833 46.667 -28.5 62s-21.5 27 -32.5 35s-21.833 13 -32.5 15s-20 3 -28 3c-19.333 0 -38.833 -3.5 -58.5 -10.5s-37.5 -17.167 -53.5 -30.5
s-29 -29.5 -39 -48.5s-15 -40.5 -15 -64.5c0 -6.66699 1.5 -14 4.5 -22s9.83301 -12 20.5 -12h114c10 0 19.333 -0.666992 28 -2s16.167 -4.66602 22.5 -9.99902s11.333 -13.833 15 -25.5s5.5 -27.5 5.5 -47.5c0 -45.333 -5.83301 -82.833 -17.5 -112.5
s-29.5 -53.167 -53.5 -70.5s-54.833 -29.666 -92.5 -36.999s-82.5 -11 -134.5 -11c-39.333 0 -74.833 6.33301 -106.5 19s-58.667 29 -81 49s-39.666 42.5 -51.999 67.5s-18.5 49.833 -18.5 74.5c0 30.667 2.33301 57.834 7 81.501s10.667 44.5 18 62.5
s15.333 33.833 24 47.5s17 26.167 25 37.5h60c-14.667 -27.333 -27.667 -56.5 -39 -87.5s-17 -61.5 -17 -91.5c0 -64 16.167 -110.667 48.5 -140s76.5 -44 132.5 -44c58.667 0 103.334 5 134.001 15s52.5 22.667 65.5 38s20 32.166 21 50.499s1.5 35.833 1.5 52.5
c0 8 -5.33301 12 -16 12h-72c-26 0 -47.5 1 -64.5 3s-30.5 5.5 -40.5 10.5s-17 12 -21 21s-6 20.5 -6 34.5c0 26 5.16699 54.167 15.5 84.5s26 58.333 47 84s47.833 47 80.5 64s71.667 25.5 117 25.5c30 0 56 -5.66699 78 -17s40.833 -26.333 56.5 -45
s28.5 -40.167 38.5 -64.5s18.167 -49.333 24.5 -75s11.166 -51.334 14.499 -77.001s5.66602 -48.834 6.99902 -69.501h310c-14 6.66699 -29.167 15.834 -45.5 27.501s-31.166 25 -44.499 40s-24.5 31.333 -33.5 49s-13.5 36.167 -13.5 55.5c0 22 3.16699 43.833 9.5 65.5
s17 41.334 32 59.001s34.833 32 59.5 43s55.334 16.5 92.001 16.5c34 0 61.333 -7.66699 82 -23s36.667 -35 48 -59s19 -50.667 23 -80s6 -58.333 6 -87v-74zM1292 93.998c0 48.667 -0.500977 89.833 -1.50098 123.5s-4.5 61 -10.5 82s-15.833 36.333 -29.5 46
s-33.167 14.5 -58.5 14.5c-19.333 0 -35.333 -2.16699 -48 -6.5s-22.667 -10.5 -30 -18.5s-12.333 -18 -15 -30s-4 -25.667 -4 -41c0 -20 4.83301 -39.667 14.5 -59s23.334 -37 41.001 -53s38.5 -29.167 62.5 -39.5s50.333 -16.5 79 -18.5zM417.997 -284.003
c0 16 5.33301 29.333 16 40s23.667 16 39 16s28.166 -5.33301 38.499 -16s15.5 -24 15.5 -40c0 -15.333 -5.16699 -28 -15.5 -38s-23.166 -15 -38.499 -15s-28.333 5 -39 15s-16 22.667 -16 38zM1132 545.997c0 16 5.33301 29.333 16 40s23.667 16 39 16
s28.166 -5.33301 38.499 -16s15.5 -24 15.5 -40c0 -15.333 -5.16699 -28 -15.5 -38s-23.166 -15 -38.499 -15s-28.333 5 -39 15s-16 22.667 -16 38zM253.997 -284.003c0 16 5.33301 29.333 16 40s23.667 16 39 16s28.166 -5.33301 38.499 -16s15.5 -24 15.5 -40
c0 -15.333 -5.16699 -28 -15.5 -38s-23.166 -15 -38.499 -15s-28.333 5 -39 15s-16 22.667 -16 38z" />
    <glyph glyph-name="ala" unicode="&#xfecb;&#xfee0;&#xfbfd;" horiz-adv-x="1864" 
d="M1123 72l292.003 0.000976562c-16.667 28 -27.834 57 -33.501 87s-8.5 59 -8.5 87c0 54 19.833 96.5 59.5 127.5s94.5 47.5 164.5 49.5c28 1.33301 59.667 -0.333984 95 -5.00098s69 -10 101 -16v-75c-10 2.66699 -22.5 5.66699 -37.5 9s-31.333 6.33301 -49 9
s-36 4.83398 -55 6.50098s-37.5 2.5 -55.5 2.5s-35.333 -2 -52 -6s-31.5 -10.5 -44.5 -19.5s-23.333 -20.333 -31 -34s-11.5 -29.834 -11.5 -48.501c0 -18 1.83301 -36 5.5 -54s8.16699 -34.833 13.5 -50.5s11.166 -29.667 17.499 -42s12.166 -21.5 17.499 -27.5h286v-72
h-1032c0 54.667 -2.5 101.5 -7.5 140.5s-11.667 71.5 -20 97.5s-17.833 46.667 -28.5 62s-21.5 27 -32.5 35s-21.833 13 -32.5 15s-20 3 -28 3c-19.333 0 -38.833 -3.5 -58.5 -10.5s-37.5 -17.167 -53.5 -30.5s-29 -29.5 -39 -48.5s-15 -40.5 -15 -64.5
c0 -6.66699 1.5 -14 4.5 -22s9.83301 -12 20.5 -12h114c10 0 19.333 -0.666992 28 -2s16.167 -4.66602 22.5 -9.99902s11.333 -13.833 15 -25.5s5.5 -27.5 5.5 -47.5c0 -45.333 -5.83301 -82.833 -17.5 -112.5s-29.5 -53.167 -53.5 -70.5s-54.833 -29.666 -92.5 -36.999
s-82.5 -11 -134.5 -11c-39.333 0 -74.833 6.33301 -106.5 19s-58.667 29 -81 49s-39.666 42.5 -51.999 67.5s-18.5 49.833 -18.5 74.5c0 30.667 2.33301 57.834 7 81.501s10.667 44.5 18 62.5s15.333 33.833 24 47.5s17 26.167 25 37.5h60
c-14.667 -27.333 -27.667 -56.5 -39 -87.5s-17 -61.5 -17 -91.5c0 -64 16.167 -110.667 48.5 -140s76.5 -44 132.5 -44c58.667 0 103.334 5 134.001 15s52.5 22.667 65.5 38s20 32.166 21 50.499s1.5 35.833 1.5 52.5c0 8 -5.33301 12 -16 12h-72c-26 0 -47.5 1 -64.5 3
s-30.5 5.5 -40.5 10.5s-17 12 -21 21s-6 20.5 -6 34.5c0 26 5.16699 54.167 15.5 84.5s26 58.333 47 84s47.833 47 80.5 64s71.667 25.5 117 25.5c30 0 56 -5.66699 78 -17s40.833 -26.333 56.5 -45s28.5 -40.167 38.5 -64.5s18.167 -49.333 24.5 -75
s11.166 -51.334 14.499 -77.001s5.66602 -48.834 6.99902 -69.501h202v570l77 22v-592z" />
    <glyph glyph-name="hamza" unicode="&#x621;" horiz-adv-x="415" arabic-form="isolated" 
d="M39 -9c14.667 12 31.666 24.3301 50.999 36.9971l53 34c-10.667 2 -20.5 6.83301 -29.5 14.5s-16.667 16.834 -23 27.501s-11.333 21.5 -15 32.5s-5.5 21.167 -5.5 30.5c0 20 4.83301 39 14.5 57s22.334 33.833 38.001 47.5s33.5 24.834 53.5 33.501
s40.5 13.834 61.5 15.501s41.667 -0.833008 62 -7.5s38.5 -18.334 54.5 -35.001l-64 -58c-14 14 -30 22 -48 24c-28 2.66699 -48.833 -2 -62.5 -14s-21.5 -27.667 -23.5 -47c-1.33301 -13.333 0.833984 -25.166 6.50098 -35.499s13 -19.166 22 -26.499
s18.833 -12.666 29.5 -15.999s20.334 -4 29.001 -2c15.333 3.33301 29.166 6.66602 41.499 9.99902l35.5 10c11.333 3.33301 22.5 6.33301 33.5 9s22.833 4.66699 35.5 6l-19 -43c-6 -14 -11.667 -31 -17 -51c-26.667 0 -53.834 -2.83301 -81.501 -8.5
s-55 -13.334 -82 -23.001s-53.333 -21 -79 -34s-49.5 -26.833 -71.5 -41.5v54z" />
    <glyph glyph-name="alefmaddaaboveiso" unicode="&#x622;" horiz-adv-x="208" arabic-form="isolated" 
d="M61 642l77 22v-664h-77v642zM-137 783c17.333 -9.33301 43.5 -15.6689 78.5 -19.002s73.5 -1.33301 115.5 6l36 6.5l36 6.5c58.667 10.667 106.667 10.834 144 0.500977s66.666 -31.833 87.999 -64.5c-16.667 9.33301 -41.667 16 -75 20s-71 2.33301 -113 -5
c-13.333 -2.66699 -27 -5.66699 -41 -9s-27.667 -6 -41 -8c-55.333 -9.33301 -102.166 -8.66602 -140.499 2.00098s-67.5 32 -87.5 64z" />
    <glyph glyph-name="alefhamzaaboveiso" unicode="&#x623;" horiz-adv-x="208" arabic-form="isolated" 
d="M61 642l77 22v-664h-77v642zM-30 734l68.001 20.999c-14.667 3.33301 -26 12.333 -34 27s-12 28.334 -12 41.001c0 18 3.66699 34.5 11 49.5s17 27.833 29 38.5s25.5 19.167 40.5 25.5s30.167 9.83301 45.5 10.5s30 -1.33301 44 -6s26 -13 36 -25l-42 -38
c-8.66699 6.66699 -19 11 -31 13s-23.5 1.5 -34.5 -1.5s-20.333 -8.5 -28 -16.5s-11.5 -18 -11.5 -30c0 -10 2.16699 -18.833 6.5 -26.5s9.66602 -14.167 15.999 -19.5s13 -9.5 20 -12.5s13.5 -4.83301 19.5 -5.5l89 26v-53l-232 -69v51z" />
    <glyph glyph-name="wawhamzaiso" unicode="&#x624;" horiz-adv-x="446" arabic-form="isolated" 
d="M147 -157c30.667 2 58.666 8.99902 83.999 20.999c10.667 4.66699 21.334 10.834 32.001 18.501s20.5 17 29.5 28s16.833 23.833 23.5 38.5s11 31.667 13 51h-113c-60.667 0 -106 13.5 -136 40.5s-45 68.833 -45 125.5c0 26 6.33301 51.833 19 77.5s33 49.5 61 71.5
s63.833 41.333 107.5 58s96.5 29.334 158.5 38.001c9.33301 -56.667 17 -119.334 23 -188.001s7.66699 -143 5 -223c-0.666992 -16 -4.66699 -36.167 -12 -60.5s-20 -48 -38 -71s-42.333 -43.667 -73 -62s-69.667 -29.5 -117 -33.5zM330.999 71.999
c0 6 -0.167969 11.999 -0.500977 17.999s-0.5 12 -0.5 18c0 16 -0.333008 33.167 -1 51.5s-1.66699 36.833 -3 55.5s-2.83301 37.334 -4.5 56.001s-3.5 36 -5.5 52c-70 -16.667 -120.5 -37.5 -151.5 -62.5s-47.167 -55.833 -48.5 -92.5c0 -10 1.16699 -20.5 3.5 -31.5
s6.83301 -21.333 13.5 -31s15.334 -17.667 26.001 -24s24.667 -9.5 42 -9.5h130zM105.998 482.998l68.001 20.999c-14.667 3.33301 -26 12.333 -34 27s-12 28.334 -12 41.001c0 18 3.66699 34.5 11 49.5s17 27.833 29 38.5s25.5 19.167 40.5 25.5s30.167 9.83301 45.5 10.5
s30 -1.33301 44 -6s26 -13 36 -25l-42 -38c-8.66699 6.66699 -19 11 -31 13s-23.5 1.5 -34.5 -1.5s-20.333 -8.5 -28 -16.5s-11.5 -18 -11.5 -30c0 -10 2.16699 -18.833 6.5 -26.5s9.66602 -14.167 15.999 -19.5s13 -9.5 20 -12.5s13.5 -4.83301 19.5 -5.5l89 26v-53
l-232 -69v51z" />
    <glyph glyph-name="alefhamzabelowiso" unicode="&#x625;" horiz-adv-x="208" arabic-form="isolated" 
d="M61 642l77 22v-664h-77v642zM-20 -273l68.001 20.999c-14.667 3.33301 -26 12.333 -34 27s-12 28.334 -12 41.001c0 18 3.66699 34.5 11 49.5s17 27.833 29 38.5s25.5 19.167 40.5 25.5s30.167 9.83301 45.5 10.5s30 -1.33301 44 -6s26 -13 36 -25l-42 -38
c-8.66699 6.66699 -19 11 -31 13s-23.5 1.5 -34.5 -1.5s-20.333 -8.5 -28 -16.5s-11.5 -18 -11.5 -30c0 -10 2.16699 -18.833 6.5 -26.5s9.66602 -14.167 15.999 -19.5s13 -9.5 20 -12.5s13.5 -4.83301 19.5 -5.5l89 26v-53l-232 -69v51z" />
    <glyph glyph-name="hamzakirsehiso" unicode="&#x626;" horiz-adv-x="651" arabic-form="isolated" 
d="M551 354c-19.333 0 -38.5029 -3.50195 -57.5029 -10.502s-36 -17.333 -51 -31s-27.333 -30 -37 -49s-14.5 -40.5 -14.5 -64.5c0 -6.66699 1.5 -14 4.5 -22s9.83301 -12 20.5 -12h114c10 0 19.333 -0.666992 28 -2s16.167 -4.66602 22.5 -9.99902s11.333 -13.833 15 -25.5
s5.5 -27.5 5.5 -47.5c0 -45.333 -5.83301 -82.833 -17.5 -112.5s-29.5 -53.167 -53.5 -70.5s-54.833 -29.666 -92.5 -36.999s-82.5 -11 -134.5 -11c-39.333 0 -74.833 6.33301 -106.5 19s-58.667 29 -81 49s-39.666 42.5 -51.999 67.5s-18.5 49.833 -18.5 74.5
c0 30.667 2.33301 57.834 7 81.501s10.667 44.5 18 62.5s15.333 33.833 24 47.5s17 26.167 25 37.5h60c-14.667 -27.333 -27.667 -56.5 -39 -87.5s-17 -61.5 -17 -91.5c0 -64 16.167 -110.667 48.5 -140s76.5 -44 132.5 -44c58.667 0 103.334 5 134.001 15
s52.5 22.667 65.5 38s20 32.166 21 50.499s1.5 35.833 1.5 52.5c0 8 -5.33301 12 -16 12h-72c-26 0 -47.5 1 -64.5 3s-30.5 5.5 -40.5 10.5s-17 12 -21 21s-6 20.5 -6 34.5c0 26 5.16699 54.167 15.5 84.5s26 58.333 47 84s47.833 47 80.5 64s71.667 25.5 117 25.5
c13.333 0 22.5 -2.83301 27.5 -8.5s7.5 -12.5 7.5 -20.5c0 -3.33301 -0.5 -7.5 -1.5 -12.5s-2.5 -9.83301 -4.5 -14.5s-4.33301 -8.66699 -7 -12s-6 -5 -10 -5s-8.16699 1.16699 -12.5 3.5s-9.16602 3.5 -14.499 3.5zM95.9971 393.998l68.001 20.999
c-14.667 3.33301 -26 12.333 -34 27s-12 28.334 -12 41.001c0 18 3.66699 34.5 11 49.5s17 27.833 29 38.5s25.5 19.167 40.5 25.5s30.167 9.83301 45.5 10.5s30 -1.33301 44 -6s26 -13 36 -25l-42 -38c-8.66699 6.66699 -19 11 -31 13s-23.5 1.5 -34.5 -1.5
s-20.333 -8.5 -28 -16.5s-11.5 -18 -11.5 -30c0 -10 2.16699 -18.833 6.5 -26.5s9.66602 -14.167 15.999 -19.5s13 -9.5 20 -12.5s13.5 -4.83301 19.5 -5.5l89 26v-53l-232 -69v51z" />
    <glyph glyph-name="alefiso" unicode="&#x627;" horiz-adv-x="208" arabic-form="isolated" 
d="M61 642l77 22v-664h-77v642z" />
    <glyph glyph-name="behiso" unicode="&#x628;" horiz-adv-x="822" arabic-form="isolated" 
d="M507 72h187.999v330l77 22v-424h-265h-49h-146h-69c-28 -0 -54 2.33301 -78 7s-45 12.334 -63 23.001s-32 24.667 -42 42s-15 38.333 -15 63c0 37.333 3.5 69.5 10.5 96.5s15.333 50.167 25 69.5s19.834 36.166 30.501 50.499s19.667 27.833 27 40.5h70
c-23.333 -37.333 -42.5 -75 -57.5 -113s-22.833 -72.333 -23.5 -103s7.5 -55.667 24.5 -75s46.5 -29 88.5 -29h72h195zM376.999 -141c0 16 5.33301 29.333 16 40s23.667 16 39 16s28.166 -5.33301 38.499 -16s15.5 -24 15.5 -40c0 -15.333 -5.16699 -28 -15.5 -38
s-23.166 -15 -38.499 -15s-28.333 5 -39 15s-16 22.667 -16 38z" />
    <glyph glyph-name="tehmarboutaiso" unicode="&#x629;" horiz-adv-x="420" arabic-form="isolated" 
d="M328 165c0 14 -2.83203 29.832 -8.49902 47.499s-13.834 35 -24.501 52s-23.834 32.333 -39.501 46s-33.167 23.5 -52.5 29.5c-14 -8 -27.5 -18.833 -40.5 -32.5s-24.667 -28.667 -35 -45s-18.666 -33.666 -24.999 -51.999s-9.5 -36.166 -9.5 -53.499
c0 -26.667 7.83301 -48.834 23.5 -66.501s42.5 -26.5 80.5 -26.5c26 0 47.333 3.5 64 10.5s30 15.667 40 26s17 21.333 21 33s6 22.167 6 31.5zM402.001 161.999c0 -29.333 -6.83301 -54.5029 -20.5 -75.5029s-30.834 -38.333 -51.501 -52s-43 -23.667 -67 -30
s-46 -9.5 -66 -9.5c-30.667 0 -57 3.66699 -79 11s-40.167 17 -54.5 29s-24.833 26.167 -31.5 42.5s-10 33.5 -10 51.5c0 20.667 2.33301 42.167 7 64.5s12 44.333 22 66s22.5 42 37.5 61s32.5 36.167 52.5 51.5l-44 19l31 47
c48.667 -9.33301 90.334 -23.166 125.001 -41.499s63 -39.666 85 -63.999s38.167 -51.166 48.5 -80.499s15.5 -59.333 15.5 -90zM49.001 544.996c0 16 5.33301 29.333 16 40s23.667 16 39 16s28.166 -5.33301 38.499 -16s15.5 -24 15.5 -40
c0 -15.333 -5.16699 -28 -15.5 -38s-23.166 -15 -38.499 -15s-28.333 5 -39 15s-16 22.667 -16 38zM213.001 544.996c0 16 5.33301 29.333 16 40s23.667 16 39 16s28.166 -5.33301 38.499 -16s15.5 -24 15.5 -40c0 -15.333 -5.16699 -28 -15.5 -38s-23.166 -15 -38.499 -15
s-28.333 5 -39 15s-16 22.667 -16 38z" />
    <glyph glyph-name="taiso" unicode="&#x62a;" horiz-adv-x="822" arabic-form="isolated" 
d="M507 72h187.999v330l77 22v-424h-265h-49h-146h-69c-28 -0 -54 2.33301 -78 7s-45 12.334 -63 23.001s-32 24.667 -42 42s-15 38.333 -15 63c0 37.333 3.5 69.5 10.5 96.5s15.333 50.167 25 69.5s19.834 36.166 30.501 50.499s19.667 27.833 27 40.5h70
c-23.333 -37.333 -42.5 -75 -57.5 -113s-22.833 -72.333 -23.5 -103s7.5 -55.667 24.5 -75s46.5 -29 88.5 -29h72h195zM305.999 546c0 16 5.33301 29.333 16 40s23.667 16 39 16s28.166 -5.33301 38.499 -16s15.5 -24 15.5 -40c0 -15.333 -5.16699 -28 -15.5 -38
s-23.166 -15 -38.499 -15s-28.333 5 -39 15s-16 22.667 -16 38zM469.999 546c0 16 5.33301 29.333 16 40s23.667 16 39 16s28.166 -5.33301 38.499 -16s15.5 -24 15.5 -40c0 -15.333 -5.16699 -28 -15.5 -38s-23.166 -15 -38.499 -15s-28.333 5 -39 15s-16 22.667 -16 38z
" />
    <glyph glyph-name="thaiso" unicode="&#x62b;" horiz-adv-x="822" arabic-form="isolated" 
d="M507 72h187.999v330l77 22v-424h-265h-49h-146h-69c-28 -0 -54 2.33301 -78 7s-45 12.334 -63 23.001s-32 24.667 -42 42s-15 38.333 -15 63c0 37.333 3.5 69.5 10.5 96.5s15.333 50.167 25 69.5s19.834 36.166 30.501 50.499s19.667 27.833 27 40.5h70
c-23.333 -37.333 -42.5 -75 -57.5 -113s-22.833 -72.333 -23.5 -103s7.5 -55.667 24.5 -75s46.5 -29 88.5 -29h72h195zM314.999 546c0 16 5.33301 29.333 16 40s23.667 16 39 16s28.166 -5.33301 38.499 -16s15.5 -24 15.5 -40c0 -15.333 -5.16699 -28 -15.5 -38
s-23.166 -15 -38.499 -15s-28.333 5 -39 15s-16 22.667 -16 38zM478.999 546c0 16 5.33301 29.333 16 40s23.667 16 39 16s28.166 -5.33301 38.499 -16s15.5 -24 15.5 -40c0 -15.333 -5.16699 -28 -15.5 -38s-23.166 -15 -38.499 -15s-28.333 5 -39 15s-16 22.667 -16 38z
M394.999 682c0 16 5.33301 29.333 16 40s23.667 16 39 16s28.166 -5.33301 38.499 -16s15.5 -24 15.5 -40c0 -15.333 -5.16699 -28 -15.5 -38s-23.166 -15 -38.499 -15s-28.333 5 -39 15s-16 22.667 -16 38z" />
    <glyph glyph-name="jeemiso" unicode="&#x62c;" horiz-adv-x="643" arabic-form="isolated" 
d="M603 218c-41.333 2.66699 -81.5029 0.334961 -120.503 -6.99805s-76 -18 -111 -32s-67.167 -31 -96.5 -51s-54.666 -41.5 -75.999 -64.5s-38 -46.833 -50 -71.5s-18 -49 -18 -73c0 -29.333 6.83301 -54.166 20.5 -74.499s32.834 -36.833 57.501 -49.5
s54.334 -22 89.001 -28s73 -9 115 -9c18.667 0 38 0.666992 58 2s40.667 3.33301 62 6l-1 -60c-59.333 -16 -116.666 -24 -171.999 -24c-38 0 -75.5 4.5 -112.5 13.5s-70.333 22.167 -100 39.5s-53.667 38.666 -72 63.999s-27.5 54.666 -27.5 87.999
c0 42 8.83301 83 26.5 123s43.334 77.167 77.001 111.5s74.5 64.666 122.5 90.999s102.667 47.166 164 62.499c-9.33301 2.66699 -22.333 7.66699 -39 15s-35 14.833 -55 22.5s-40.667 14.5 -62 20.5s-41.333 9 -60 9c-8.66699 0 -18.334 -1.5 -29.001 -4.5
s-21.5 -7.33301 -32.5 -13s-21.833 -12.667 -32.5 -21s-20.334 -17.833 -29.001 -28.5l-54 46c10.667 12.667 23.334 25.167 38.001 37.5s30.5 23.333 47.5 33s34.5 17.5 52.5 23.5s35.667 9 53 9c19.333 0 43.666 -6.16699 72.999 -18.5s64 -25.166 104 -38.499
c38 -12.667 71.833 -22 101.5 -28s59.167 -9.33301 88.5 -10v-111zM333.997 -11.999c0 16 5.33301 29.333 16 40s23.667 16 39 16s28.166 -5.33301 38.499 -16s15.5 -24 15.5 -40c0 -15.333 -5.16699 -28 -15.5 -38s-23.166 -15 -38.499 -15s-28.333 5 -39 15
s-16 22.667 -16 38z" />
    <glyph glyph-name="haaiso" unicode="&#x62d;" horiz-adv-x="643" arabic-form="isolated" 
d="M603 218c-41.333 2.66699 -81.5029 0.334961 -120.503 -6.99805s-76 -18 -111 -32s-67.167 -31 -96.5 -51s-54.666 -41.5 -75.999 -64.5s-38 -46.833 -50 -71.5s-18 -49 -18 -73c0 -29.333 6.83301 -54.166 20.5 -74.499s32.834 -36.833 57.501 -49.5
s54.334 -22 89.001 -28s73 -9 115 -9c18.667 0 38 0.666992 58 2s40.667 3.33301 62 6l-1 -60c-59.333 -16 -116.666 -24 -171.999 -24c-38 0 -75.5 4.5 -112.5 13.5s-70.333 22.167 -100 39.5s-53.667 38.666 -72 63.999s-27.5 54.666 -27.5 87.999
c0 42 8.83301 83 26.5 123s43.334 77.167 77.001 111.5s74.5 64.666 122.5 90.999s102.667 47.166 164 62.499c-9.33301 2.66699 -22.333 7.66699 -39 15s-35 14.833 -55 22.5s-40.667 14.5 -62 20.5s-41.333 9 -60 9c-8.66699 0 -18.334 -1.5 -29.001 -4.5
s-21.5 -7.33301 -32.5 -13s-21.833 -12.667 -32.5 -21s-20.334 -17.833 -29.001 -28.5l-54 46c10.667 12.667 23.334 25.167 38.001 37.5s30.5 23.333 47.5 33s34.5 17.5 52.5 23.5s35.667 9 53 9c19.333 0 43.666 -6.16699 72.999 -18.5s64 -25.166 104 -38.499
c38 -12.667 71.833 -22 101.5 -28s59.167 -9.33301 88.5 -10v-111z" />
    <glyph glyph-name="khaiso" unicode="&#x62e;" horiz-adv-x="643" arabic-form="isolated" 
d="M603 218c-41.333 2.66699 -81.5029 0.334961 -120.503 -6.99805s-76 -18 -111 -32s-67.167 -31 -96.5 -51s-54.666 -41.5 -75.999 -64.5s-38 -46.833 -50 -71.5s-18 -49 -18 -73c0 -29.333 6.83301 -54.166 20.5 -74.499s32.834 -36.833 57.501 -49.5
s54.334 -22 89.001 -28s73 -9 115 -9c18.667 0 38 0.666992 58 2s40.667 3.33301 62 6l-1 -60c-59.333 -16 -116.666 -24 -171.999 -24c-38 0 -75.5 4.5 -112.5 13.5s-70.333 22.167 -100 39.5s-53.667 38.666 -72 63.999s-27.5 54.666 -27.5 87.999
c0 42 8.83301 83 26.5 123s43.334 77.167 77.001 111.5s74.5 64.666 122.5 90.999s102.667 47.166 164 62.499c-9.33301 2.66699 -22.333 7.66699 -39 15s-35 14.833 -55 22.5s-40.667 14.5 -62 20.5s-41.333 9 -60 9c-8.66699 0 -18.334 -1.5 -29.001 -4.5
s-21.5 -7.33301 -32.5 -13s-21.833 -12.667 -32.5 -21s-20.334 -17.833 -29.001 -28.5l-54 46c10.667 12.667 23.334 25.167 38.001 37.5s30.5 23.333 47.5 33s34.5 17.5 52.5 23.5s35.667 9 53 9c19.333 0 43.666 -6.16699 72.999 -18.5s64 -25.166 104 -38.499
c38 -12.667 71.833 -22 101.5 -28s59.167 -9.33301 88.5 -10v-111zM274.997 546.001c0 16 5.33301 29.333 16 40s23.667 16 39 16s28.166 -5.33301 38.499 -16s15.5 -24 15.5 -40c0 -15.333 -5.16699 -28 -15.5 -38s-23.166 -15 -38.499 -15s-28.333 5 -39 15
s-16 22.667 -16 38z" />
    <glyph glyph-name="daliso" unicode="&#x62f;" horiz-adv-x="510" arabic-form="isolated" 
d="M55 87c7.33301 -2.66699 15.332 -5.33398 23.999 -8.00098c7.33301 -2 16 -3.66699 26 -5s21 -2 33 -2h241c0.666992 19.333 -1.5 42.333 -6.5 69s-14.5 54 -28.5 82s-33.333 54.833 -58 80.5s-56.667 47.167 -96 64.5l23 84c30.667 -9.33301 61.167 -26.5 91.5 -51.5
s57.833 -54.833 82.5 -89.5s44.667 -72.667 60 -114s23 -83 23 -125v-72h-341c-12 0 -22.667 0.833008 -32 2.5s-17.666 3.5 -24.999 5.5c-8 2.66699 -15.333 5.33398 -22 8.00098z" />
    <glyph glyph-name="zaliso" unicode="&#x630;" horiz-adv-x="510" arabic-form="isolated" 
d="M55 87c7.33301 -2.66699 15.332 -5.33398 23.999 -8.00098c7.33301 -2 16 -3.66699 26 -5s21 -2 33 -2h241c0.666992 19.333 -1.5 42.333 -6.5 69s-14.5 54 -28.5 82s-33.333 54.833 -58 80.5s-56.667 47.167 -96 64.5l23 84c30.667 -9.33301 61.167 -26.5 91.5 -51.5
s57.833 -54.833 82.5 -89.5s44.667 -72.667 60 -114s23 -83 23 -125v-72h-341c-12 0 -22.667 0.833008 -32 2.5s-17.666 3.5 -24.999 5.5c-8 2.66699 -15.333 5.33398 -22 8.00098zM172.999 546c0 16 5.33301 29.333 16 40s23.667 16 39 16s28.166 -5.33301 38.499 -16
s15.5 -24 15.5 -40c0 -15.333 -5.16699 -28 -15.5 -38s-23.166 -15 -38.499 -15s-28.333 5 -39 15s-16 22.667 -16 38z" />
    <glyph glyph-name="raiso" unicode="&#x631;" horiz-adv-x="286" arabic-form="isolated" 
d="M213 429c10 -57.333 18.499 -122.333 25.499 -195s9.16699 -150.667 6.5 -234c-0.666992 -17.333 -4.66699 -38.5 -12 -63.5s-20.833 -49.5 -40.5 -73.5s-46.167 -44.667 -79.5 -62s-76.333 -27 -129 -29l-19 57c37.333 6 71 17 101 33
c12.667 6.66699 25 14.834 37 24.501s22.667 21.167 32 34.5s17 28.666 23 45.999s9 37 9 59c0 60 -1.66699 123 -5 189s-12.666 129.333 -27.999 190z" />
    <glyph glyph-name="zaiso" unicode="&#x632;" horiz-adv-x="286" arabic-form="isolated" 
d="M213 429c10 -57.333 18.499 -122.333 25.499 -195s9.16699 -150.667 6.5 -234c-0.666992 -17.333 -4.66699 -38.5 -12 -63.5s-20.833 -49.5 -40.5 -73.5s-46.167 -44.667 -79.5 -62s-76.333 -27 -129 -29l-19 57c37.333 6 71 17 101 33
c12.667 6.66699 25 14.834 37 24.501s22.667 21.167 32 34.5s17 28.666 23 45.999s9 37 9 59c0 60 -1.66699 123 -5 189s-12.666 129.333 -27.999 190zM83.999 546c0 16 5.33301 29.333 16 40s23.667 16 39 16s28.166 -5.33301 38.499 -16s15.5 -24 15.5 -40
c0 -15.333 -5.16699 -28 -15.5 -38s-23.166 -15 -38.499 -15s-28.333 5 -39 15s-16 22.667 -16 38z" />
    <glyph glyph-name="seeniso" unicode="&#x633;" horiz-adv-x="1080" arabic-form="isolated" 
d="M191 233c-17.333 -28.667 -33 -60.8301 -47 -96.4971s-21 -70.5 -21 -104.5c0 -64 16.167 -110.833 48.5 -140.5s76.5 -44.5 132.5 -44.5c22.667 0 44 3.5 64 10.5s38 16.667 54 29s29.5 26.666 40.5 42.999s18.833 34.166 23.5 53.499l4 21
c1.33301 7.33301 2 14.666 2 21.999v376l77 22v-352h150v330l77 22v-352h151v330l77 22v-424h-455c-14 -80.667 -43.833 -139 -89.5 -175s-104.5 -54 -176.5 -54c-39.333 0 -74.833 6.33301 -106.5 19s-58.667 29.167 -81 49.5s-39.666 43 -51.999 68
s-18.5 49.833 -18.5 74.5c0 36 3.16699 67 9.5 93s14.166 48.833 23.499 68.5s19 36.5 29 50.5l27 39h57z" />
    <glyph glyph-name="sheeniso" unicode="&#x634;" horiz-adv-x="1080" arabic-form="isolated" 
d="M191 233c-17.333 -28.667 -33 -60.8301 -47 -96.4971s-21 -70.5 -21 -104.5c0 -64 16.167 -110.833 48.5 -140.5s76.5 -44.5 132.5 -44.5c22.667 0 44 3.5 64 10.5s38 16.667 54 29s29.5 26.666 40.5 42.999s18.833 34.166 23.5 53.499l4 21
c1.33301 7.33301 2 14.666 2 21.999v376l77 22v-352h150v330l77 22v-352h151v330l77 22v-424h-455c-14 -80.667 -43.833 -139 -89.5 -175s-104.5 -54 -176.5 -54c-39.333 0 -74.833 6.33301 -106.5 19s-58.667 29.167 -81 49.5s-39.666 43 -51.999 68
s-18.5 49.833 -18.5 74.5c0 36 3.16699 67 9.5 93s14.166 48.833 23.499 68.5s19 36.5 29 50.5l27 39h57zM625 546.004c0 16 5.33301 29.333 16 40s23.667 16 39 16s28.166 -5.33301 38.499 -16s15.5 -24 15.5 -40c0 -15.333 -5.16699 -28 -15.5 -38
s-23.166 -15 -38.499 -15s-28.333 5 -39 15s-16 22.667 -16 38zM789 546.004c0 16 5.33301 29.333 16 40s23.667 16 39 16s28.166 -5.33301 38.499 -16s15.5 -24 15.5 -40c0 -15.333 -5.16699 -28 -15.5 -38s-23.166 -15 -38.499 -15s-28.333 5 -39 15s-16 22.667 -16 38z
M705 682.004c0 16 5.33301 29.333 16 40s23.667 16 39 16s28.166 -5.33301 38.499 -16s15.5 -24 15.5 -40c0 -15.333 -5.16699 -28 -15.5 -38s-23.166 -15 -38.499 -15s-28.333 5 -39 15s-16 22.667 -16 38z" />
    <glyph glyph-name="sadiso" unicode="&#x635;" horiz-adv-x="1165" arabic-form="isolated" 
d="M1023 72l0.000976562 91.002c0 18.667 -1.5 37 -4.5 55s-9.33301 34.167 -19 48.5s-23 25.833 -40 34.5s-39.5 13 -67.5 13c-19.333 0 -42.5 -6 -69.5 -18s-55.167 -28.833 -84.5 -50.5s-58.833 -47.334 -88.5 -77.001s-56.834 -61.834 -81.501 -96.501h455z
M492.001 44.002v267.002l77 25v-63v-88c65.333 68.667 127.166 119.334 185.499 152.001s113.5 49 165.5 49c38 0 68.5 -8.83301 91.5 -26.5s41 -40.167 54 -67.5s21.833 -57.166 26.5 -89.499s7.33398 -63.5 8.00098 -93.5v-109h-531c-14 -80.667 -43.833 -139 -89.5 -175
s-104.5 -54 -176.5 -54c-39.333 0 -74.833 6.33301 -106.5 19s-58.667 29.167 -81 49.5s-39.666 43 -51.999 68s-18.5 49.833 -18.5 74.5c0 36 3.16699 67 9.5 93s14.166 48.833 23.499 68.5s19 36.5 29 50.5l27 39h57c-17.333 -28.667 -33 -60.834 -47 -96.501
s-21 -70.5 -21 -104.5c0 -64 16.167 -110.833 48.5 -140.5s76.5 -44.5 132.5 -44.5c22.667 0 44 3.5 64 10.5s38 16.667 54 29s29.5 26.666 40.5 42.999s18.833 34.166 23.5 53.499l4 21c1.33301 7.33301 2 14.666 2 21.999v18z" />
    <glyph glyph-name="dadiso" unicode="&#x636;" horiz-adv-x="1165" arabic-form="isolated" 
d="M1023 72l0.000976562 91.002c0 18.667 -1.5 37 -4.5 55s-9.33301 34.167 -19 48.5s-23 25.833 -40 34.5s-39.5 13 -67.5 13c-19.333 0 -42.5 -6 -69.5 -18s-55.167 -28.833 -84.5 -50.5s-58.833 -47.334 -88.5 -77.001s-56.834 -61.834 -81.501 -96.501h455z
M492.001 44.002v267.002l77 25v-63v-88c65.333 68.667 127.166 119.334 185.499 152.001s113.5 49 165.5 49c38 0 68.5 -8.83301 91.5 -26.5s41 -40.167 54 -67.5s21.833 -57.166 26.5 -89.499s7.33398 -63.5 8.00098 -93.5v-109h-531c-14 -80.667 -43.833 -139 -89.5 -175
s-104.5 -54 -176.5 -54c-39.333 0 -74.833 6.33301 -106.5 19s-58.667 29.167 -81 49.5s-39.666 43 -51.999 68s-18.5 49.833 -18.5 74.5c0 36 3.16699 67 9.5 93s14.166 48.833 23.499 68.5s19 36.5 29 50.5l27 39h57c-17.333 -28.667 -33 -60.834 -47 -96.501
s-21 -70.5 -21 -104.5c0 -64 16.167 -110.833 48.5 -140.5s76.5 -44.5 132.5 -44.5c22.667 0 44 3.5 64 10.5s38 16.667 54 29s29.5 26.666 40.5 42.999s18.833 34.166 23.5 53.499l4 21c1.33301 7.33301 2 14.666 2 21.999v18zM692.001 546.004c0 16 5.33301 29.333 16 40
s23.667 16 39 16s28.166 -5.33301 38.499 -16s15.5 -24 15.5 -40c0 -15.333 -5.16699 -28 -15.5 -38s-23.166 -15 -38.499 -15s-28.333 5 -39 15s-16 22.667 -16 38z" />
    <glyph glyph-name="tahiso" unicode="&#x637;" horiz-adv-x="812" arabic-form="isolated" 
d="M670 72l0.000976562 91.002c0 18.667 -1.5 37 -4.5 55s-9.33301 34.167 -19 48.5s-23 25.833 -40 34.5s-39.5 13 -67.5 13c-19.333 0 -42.5 -6 -69.5 -18s-55.167 -28.833 -84.5 -50.5s-58.833 -47.334 -88.5 -77.001s-56.834 -61.834 -81.501 -96.501h455z
M139.001 72.002v569.998l77 25v-482c65.333 68.667 127.166 119.334 185.499 152.001s113.5 49 165.5 49c38 0 68.5 -8.83301 91.5 -26.5s41 -40.167 54 -67.5s21.833 -57.166 26.5 -89.499s7.33398 -63.5 8.00098 -93.5v-37v-72h-702v72h94z" />
    <glyph glyph-name="zadiso" unicode="&#x638;" horiz-adv-x="812" arabic-form="isolated" 
d="M670 72l0.000976562 91.002c0 18.667 -1.5 37 -4.5 55s-9.33301 34.167 -19 48.5s-23 25.833 -40 34.5s-39.5 13 -67.5 13c-19.333 0 -42.5 -6 -69.5 -18s-55.167 -28.833 -84.5 -50.5s-58.833 -47.334 -88.5 -77.001s-56.834 -61.834 -81.501 -96.501h455z
M139.001 72.002v569.998l77 25v-482c65.333 68.667 127.166 119.334 185.499 152.001s113.5 49 165.5 49c38 0 68.5 -8.83301 91.5 -26.5s41 -40.167 54 -67.5s21.833 -57.166 26.5 -89.499s7.33398 -63.5 8.00098 -93.5v-37v-72h-702v72h94zM396.001 546
c0 16 5.33301 29.333 16 40s23.667 16 39 16s28.166 -5.33301 38.499 -16s15.5 -24 15.5 -40c0 -15.333 -5.16699 -28 -15.5 -38s-23.166 -15 -38.499 -15s-28.333 5 -39 15s-16 22.667 -16 38z" />
    <glyph glyph-name="ayniso" unicode="&#x639;" horiz-adv-x="537" arabic-form="isolated" 
d="M498 119c-56.667 -10 -108 -22.998 -154 -38.998s-85.167 -33.5 -117.5 -52.5s-57.333 -39.333 -75 -61s-26.5 -43.167 -26.5 -64.5c0 -18 3.83301 -35.833 11.5 -53.5s21.5 -33.5 41.5 -47.5s47.667 -25.333 83 -34s80.666 -13 135.999 -13
c17.333 0 36.5 1.16699 57.5 3.5s42.167 4.83301 63.5 7.5l-1 -61c-60.667 -14.667 -118.667 -22 -174 -22c-26.667 0 -57.167 3.83301 -91.5 11.5s-66.833 19.667 -97.5 36s-56.5 37.166 -77.5 62.499s-31.5 55.666 -31.5 90.999c0 22.667 5.33301 44.667 16 66
s24.5 41.333 41.5 60s36.333 35.667 58 51s43.5 28.333 65.5 39c-85.333 29.333 -128 81.666 -128 156.999c0 24.667 4 47.834 12 69.501s20 40.667 36 57s36.333 29.333 61 39s53.667 14.5 87 14.5c40.667 0 82 -7.66699 124 -23l2 -53c-22 8 -47.167 13.167 -75.5 15.5
s-54.833 0.666016 -79.5 -5.00098s-45.5 -16.167 -62.5 -31.5s-25.5 -36.666 -25.5 -63.999c0 -44 12.333 -77.5 37 -100.5s56.334 -34.5 95.001 -34.5c22.667 10.667 51.667 20 87 28s69.333 15 102 21v-70z" />
    <glyph glyph-name="ghaiso" unicode="&#x63a;" horiz-adv-x="537" arabic-form="isolated" 
d="M498 119c-56.667 -10 -108 -22.998 -154 -38.998s-85.167 -33.5 -117.5 -52.5s-57.333 -39.333 -75 -61s-26.5 -43.167 -26.5 -64.5c0 -18 3.83301 -35.833 11.5 -53.5s21.5 -33.5 41.5 -47.5s47.667 -25.333 83 -34s80.666 -13 135.999 -13
c17.333 0 36.5 1.16699 57.5 3.5s42.167 4.83301 63.5 7.5l-1 -61c-60.667 -14.667 -118.667 -22 -174 -22c-26.667 0 -57.167 3.83301 -91.5 11.5s-66.833 19.667 -97.5 36s-56.5 37.166 -77.5 62.499s-31.5 55.666 -31.5 90.999c0 22.667 5.33301 44.667 16 66
s24.5 41.333 41.5 60s36.333 35.667 58 51s43.5 28.333 65.5 39c-85.333 29.333 -128 81.666 -128 156.999c0 24.667 4 47.834 12 69.501s20 40.667 36 57s36.333 29.333 61 39s53.667 14.5 87 14.5c40.667 0 82 -7.66699 124 -23l2 -53c-22 8 -47.167 13.167 -75.5 15.5
s-54.833 0.666016 -79.5 -5.00098s-45.5 -16.167 -62.5 -31.5s-25.5 -36.666 -25.5 -63.999c0 -44 12.333 -77.5 37 -100.5s56.334 -34.5 95.001 -34.5c22.667 10.667 51.667 20 87 28s69.333 15 102 21v-70zM237 546.002c0 16 5.33301 29.333 16 40s23.667 16 39 16
s28.166 -5.33301 38.499 -16s15.5 -24 15.5 -40c0 -15.333 -5.16699 -28 -15.5 -38s-23.166 -15 -38.499 -15s-28.333 5 -39 15s-16 22.667 -16 38z" />
    <glyph glyph-name="faiso" unicode="&#x641;" horiz-adv-x="874" arabic-form="isolated" 
d="M824 105c0 -70 -25.0029 -105.002 -75.0029 -105.002h-506c-28 0 -54 2.33301 -78 7s-45 12.334 -63 23.001s-32 24.667 -42 42s-15 38.333 -15 63c0 37.333 3.5 69.5 10.5 96.5s15.333 50.167 25 69.5s19.834 36.166 30.501 50.499s19.667 27.833 27 40.5h70
c-23.333 -37.333 -42.5 -75 -57.5 -113s-22.833 -72.333 -23.5 -103s7.5 -55.667 24.5 -75s46.5 -29 88.5 -29h369c-14 6.66699 -29.167 15.834 -45.5 27.501s-31.166 25 -44.499 40s-24.5 31.333 -33.5 49s-13.5 36.167 -13.5 55.5c0 22 3.16699 43.833 9.5 65.5
s17 41.334 32 59.001s34.833 32 59.5 43s55.334 16.5 92.001 16.5c34 0 61.333 -7.66699 82 -23s36.667 -35 48 -59s19 -50.667 23 -80s6 -58.333 6 -87v-74zM746.997 93.998c0 48.667 -0.500977 89.833 -1.50098 123.5s-4.5 61 -10.5 82s-15.833 36.333 -29.5 46
s-33.167 14.5 -58.5 14.5c-19.333 0 -35.333 -2.16699 -48 -6.5s-22.667 -10.5 -30 -18.5s-12.333 -18 -15 -30s-4 -25.667 -4 -41c0 -20 4.83301 -39.667 14.5 -59s23.334 -37 41.001 -53s38.5 -29.167 62.5 -39.5s50.333 -16.5 79 -18.5zM604.996 545.997
c0 16 5.33301 29.333 16 40s23.667 16 39 16s28.166 -5.33301 38.499 -16s15.5 -24 15.5 -40c0 -15.333 -5.16699 -28 -15.5 -38s-23.166 -15 -38.499 -15s-28.333 5 -39 15s-16 22.667 -16 38z" />
    <glyph glyph-name="kaafiso" unicode="&#x642;" horiz-adv-x="746" arabic-form="isolated" 
d="M631 72c0 6 -0.167969 11.999 -0.500977 17.999s-0.5 12 -0.5 18c0 16 -0.333008 33.167 -1 51.5s-1.66699 36.833 -3 55.5s-2.83301 37.334 -4.5 56.001s-3.5 36 -5.5 52c-70 -16.667 -120.5 -37.5 -151.5 -62.5s-47.167 -55.833 -48.5 -92.5
c0 -10 1.16699 -20.5 3.5 -31.5s6.83301 -21.333 13.5 -31s15.334 -17.667 26.001 -24s24.667 -9.5 42 -9.5h130zM178.999 273.999c-16.667 -28 -30.666 -59.666 -41.999 -94.999s-17 -69.666 -17 -102.999c0 -20.667 2 -44.334 6 -71.001s13 -52 27 -76
s34.167 -44.167 60.5 -60.5s61.833 -24.5 106.5 -24.5h127c8 0 21.667 1.16699 41 3.5s39.166 8.66602 59.499 18.999s38.5 25.833 54.5 46.5s25 49.667 27 87h-113c-60.667 0 -106 13.5 -136 40.5s-45 68.833 -45 125.5c0 26 6.33301 51.833 19 77.5s33 49.5 61 71.5
s63.833 41.333 107.5 58s96.5 29.334 158.5 38.001c9.33301 -56.667 17 -119.334 23 -188.001s7.66699 -143 5 -223c-0.666992 -16 -4.33398 -37 -11.001 -63s-18.667 -51.167 -36 -75.5s-41.166 -45.333 -71.499 -63s-69.5 -26.5 -117.5 -26.5h-169
c-30.667 0 -61.5 5.16699 -92.5 15.5s-58.833 26 -83.5 47s-44.667 47.333 -60 79s-23 69.167 -23 112.5c0 35.333 2.5 65.833 7.5 91.5s11.333 48.167 19 67.5s16 36 25 50l25.5 39h57zM400 545c0 16 5.33301 29.333 16 40s23.667 16 39 16s28.166 -5.33301 38.499 -16
s15.5 -24 15.5 -40c0 -15.333 -5.16699 -28 -15.5 -38s-23.166 -15 -38.499 -15s-28.333 5 -39 15s-16 22.667 -16 38zM564 545c0 16 5.33301 29.333 16 40s23.667 16 39 16s28.166 -5.33301 38.499 -16s15.5 -24 15.5 -40c0 -15.333 -5.16699 -28 -15.5 -38
s-23.166 -15 -38.499 -15s-28.333 5 -39 15s-16 22.667 -16 38z" />
    <glyph glyph-name="kafiso" unicode="&#x643;" horiz-adv-x="780" arabic-form="isolated" 
d="M710 0h-467.001c-28 -0 -54 2.33301 -78 7s-45 12.334 -63 23.001s-32 24.667 -42 42s-15 38.333 -15 63c0 37.333 3.5 69.5 10.5 96.5s15.333 50.167 25 69.5s19.834 36.166 30.501 50.499s19.667 27.833 27 40.5h70c-23.333 -37.333 -42.5 -75 -57.5 -113
s-22.833 -72.333 -23.5 -103s7.5 -55.667 24.5 -75s46.5 -29 88.5 -29h393v570l77 22v-664zM285.999 332l68.001 20.999c-14.667 3.33301 -26 12.333 -34 27s-12 28.334 -12 41.001c0 18 3.66699 34.5 11 49.5s17 27.833 29 38.5s25.5 19.167 40.5 25.5
s30.167 9.83301 45.5 10.5s30 -1.5 44 -6.5s26 -13.167 36 -24.5l-42 -38c-8.66699 6.66699 -19 11 -31 13s-23.5 1.5 -34.5 -1.5s-20.333 -8.5 -28 -16.5s-11.5 -18 -11.5 -30c0 -10 2.16699 -18.833 6.5 -26.5s9.66602 -14.167 15.999 -19.5s13 -9.5 20 -12.5
s13.5 -4.83301 19.5 -5.5l89 26v-53l-232 -69v51z" />
    <glyph glyph-name="lamiso" unicode="&#x644;" horiz-adv-x="639" arabic-form="isolated" 
d="M492 642l77 22.0029v-632c0 -40.667 -6.5 -77.167 -19.5 -109.5s-31.167 -59.666 -54.5 -81.999s-51.333 -39.5 -84 -51.5s-68.667 -18 -108 -18s-74.833 6.33301 -106.5 19s-58.667 29.167 -81 49.5s-39.666 43 -51.999 68s-18.5 49.833 -18.5 74.5
c0 36 3.16699 67 9.5 93s14.166 48.833 23.499 68.5s19 36.5 29 50.5l27 39h57c-17.333 -28.667 -33 -60.834 -47 -96.501s-21 -70.5 -21 -104.5c0 -64 16.167 -110.833 48.5 -140.5s76.5 -44.5 132.5 -44.5c22.667 0 44 3.5 64 10.5s38 16.667 54 29
s29.5 26.666 40.5 42.999s18.833 34.166 23.5 53.499l4 21c1.33301 7.33301 2 14.666 2 21.999v616z" />
    <glyph glyph-name="meemiso" unicode="&#x645;" horiz-adv-x="579" arabic-form="isolated" 
d="M463 49c-2.66699 30 -6.16699 60.1699 -10.5 90.5029s-9.5 57.666 -15.5 81.999s-13 44.166 -21 59.499s-17 23 -27 23c-9.33301 0 -20.5 -7 -33.5 -21s-25.833 -30.167 -38.5 -48.5s-24 -36.333 -34 -54s-16.667 -29.834 -20 -36.501
c14 -10.667 29.667 -20.834 47 -30.501s35 -18.667 53 -27s35.667 -15.666 53 -21.999s33 -11.5 47 -15.5zM437 -31.9971c-20 8 -46.4971 20.333 -79.4971 37s-74.5 35.667 -124.5 57c-14.667 6 -27.834 10.5 -39.501 13.5s-21.5 3.16699 -29.5 0.5
s-14.167 -8.5 -18.5 -17.5s-6.5 -22.167 -6.5 -39.5v-249h-77v302c0 36 12.667 62 38 78s57.333 20 96 12c18.667 35.333 37.834 67.833 57.501 97.5s38.5 55.167 56.5 76.5s34.333 38 49 50s26.667 18 36 18c16 0 30.667 -6.5 44 -19.5s25.5 -29.5 36.5 -49.5
s20.5 -42.333 28.5 -67s14.667 -48.667 20 -72s9.16602 -44.833 11.499 -64.5s3.16602 -34.5 2.49902 -44.5c-0.666992 -8.66699 -1.33398 -18.5 -2.00098 -29.5s-4.66699 -23.167 -12 -36.5l-18 -32c-4.66699 -8 -9.16699 -14 -13.5 -18s-8.5 -6.66699 -12.5 -8
s-9 -2 -15 -2c-8.66699 0 -18 2.33301 -28 7z" />
    <glyph glyph-name="nouniso" unicode="&#x646;" horiz-adv-x="651" arabic-form="isolated" 
d="M304 -151c-30.667 0 -61.502 5.16211 -92.502 15.4951s-58.833 26 -83.5 47s-44.667 47.333 -60 79s-23 69.167 -23 112.5c0 28.667 2.83301 54.334 8.5 77.001s12.5 42.834 20.5 60.501s16.5 33.167 25.5 46.5l24.5 37h59c-6 -13.333 -12.667 -27 -20 -41
s-14.166 -28.333 -20.499 -43s-11.666 -29.334 -15.999 -44.001s-6.5 -29 -6.5 -43c0 -20.667 2 -44.5 6 -71.5s13 -52.5 27 -76.5s34.167 -44.167 60.5 -60.5s61.833 -24.5 106.5 -24.5h17c29.333 0 54.833 5.33301 76.5 16s39.834 25.334 54.501 44.001
s25.667 40.334 33 65.001s11 51 11 79c0.666992 43.333 -1.83301 87.5 -7.5 132.5s-13.5 88.833 -23.5 131.5l80 26c20 -94 30 -187.333 30 -280c0 -54 -7.33301 -99.167 -22 -135.5s-34.167 -65.666 -58.5 -87.999s-52.333 -38.166 -84 -47.499s-64.834 -14 -99.501 -14
h-23zM265.998 488.995c0 16 5.33301 29.333 16 40s23.667 16 39 16s28.166 -5.33301 38.499 -16s15.5 -24 15.5 -40c0 -15.333 -5.16699 -28 -15.5 -38s-23.166 -15 -38.499 -15s-28.333 5 -39 15s-16 22.667 -16 38z" />
    <glyph glyph-name="haini" unicode="&#x647;" horiz-adv-x="633" arabic-form="initial" 
d="M284 173c0 39.333 -6.83008 71.001 -20.4971 95.001s-29.834 36 -48.501 36c-20 0 -35.333 -9.83301 -46 -29.5s-16 -43.5 -16 -71.5c0 -14 1.16699 -28.167 3.5 -42.5s6.16602 -27.333 11.499 -39s12.666 -21.334 21.999 -29.001s21 -11.5 35 -11.5c22 0 37.333 9 46 27
s13 39.667 13 65zM563.003 0.000976562l-578.001 -0.00488281v72h149c-10 7.33301 -18.167 16.333 -24.5 27s-11.333 22.167 -15 34.5s-6.33398 24.833 -8.00098 37.5s-2.5 24.334 -2.5 35.001c0 15.333 2.83301 31 8.5 47s13.667 30.833 24 44.5s22.333 25.334 36 35.001
s28.5 15.834 44.5 18.501c-40 0 -70 5.83301 -90 17.5s-32.333 34.834 -37 69.501c25.333 -7.33301 57.333 -14.166 96 -20.499s88 -12.166 148 -17.499c54 -6.66699 97.333 -15.334 130 -26.001s57.834 -26.5 75.501 -47.5s29.334 -48.5 35.001 -82.5s8.5 -77.667 8.5 -131
v-113zM486.002 71.9961c0 58 -3.16895 103.669 -9.50195 137.002s-16.666 58.833 -30.999 76.5s-33.166 29.5 -56.499 35.5s-52 11 -86 15c16 -14.667 28.333 -34.334 37 -59.001s13.667 -50 15 -76s-1.16699 -50.833 -7.5 -74.5s-16.5 -41.834 -30.5 -54.501h169z" />
    <glyph glyph-name="wawiso" unicode="&#x648;" horiz-adv-x="446" arabic-form="isolated" 
d="M147 -157c30.667 2 58.666 8.99902 83.999 20.999c10.667 4.66699 21.334 10.834 32.001 18.501s20.5 17 29.5 28s16.833 23.833 23.5 38.5s11 31.667 13 51h-113c-60.667 0 -106 13.5 -136 40.5s-45 68.833 -45 125.5c0 26 6.33301 51.833 19 77.5s33 49.5 61 71.5
s63.833 41.333 107.5 58s96.5 29.334 158.5 38.001c9.33301 -56.667 17 -119.334 23 -188.001s7.66699 -143 5 -223c-0.666992 -16 -4.66699 -36.167 -12 -60.5s-20 -48 -38 -71s-42.333 -43.667 -73 -62s-69.667 -29.5 -117 -33.5zM330.999 71.999
c0 6 -0.167969 11.999 -0.500977 17.999s-0.5 12 -0.5 18c0 16 -0.333008 33.167 -1 51.5s-1.66699 36.833 -3 55.5s-2.83301 37.334 -4.5 56.001s-3.5 36 -5.5 52c-70 -16.667 -120.5 -37.5 -151.5 -62.5s-47.167 -55.833 -48.5 -92.5c0 -10 1.16699 -20.5 3.5 -31.5
s6.83301 -21.333 13.5 -31s15.334 -17.667 26.001 -24s24.667 -9.5 42 -9.5h130z" />
    <glyph glyph-name="alefma2souraiso" unicode="&#x649;" horiz-adv-x="651" arabic-form="isolated" 
d="M551 354c-19.333 0 -38.5029 -3.50195 -57.5029 -10.502s-36 -17.333 -51 -31s-27.333 -30 -37 -49s-14.5 -40.5 -14.5 -64.5c0 -6.66699 1.5 -14 4.5 -22s9.83301 -12 20.5 -12h114c10 0 19.333 -0.666992 28 -2s16.167 -4.66602 22.5 -9.99902s11.333 -13.833 15 -25.5
s5.5 -27.5 5.5 -47.5c0 -45.333 -5.83301 -82.833 -17.5 -112.5s-29.5 -53.167 -53.5 -70.5s-54.833 -29.666 -92.5 -36.999s-82.5 -11 -134.5 -11c-39.333 0 -74.833 6.33301 -106.5 19s-58.667 29 -81 49s-39.666 42.5 -51.999 67.5s-18.5 49.833 -18.5 74.5
c0 30.667 2.33301 57.834 7 81.501s10.667 44.5 18 62.5s15.333 33.833 24 47.5s17 26.167 25 37.5h60c-14.667 -27.333 -27.667 -56.5 -39 -87.5s-17 -61.5 -17 -91.5c0 -64 16.167 -110.667 48.5 -140s76.5 -44 132.5 -44c58.667 0 103.334 5 134.001 15
s52.5 22.667 65.5 38s20 32.166 21 50.499s1.5 35.833 1.5 52.5c0 8 -5.33301 12 -16 12h-72c-26 0 -47.5 1 -64.5 3s-30.5 5.5 -40.5 10.5s-17 12 -21 21s-6 20.5 -6 34.5c0 26 5.16699 54.167 15.5 84.5s26 58.333 47 84s47.833 47 80.5 64s71.667 25.5 117 25.5
c13.333 0 22.5 -2.83301 27.5 -8.5s7.5 -12.5 7.5 -20.5c0 -3.33301 -0.5 -7.5 -1.5 -12.5s-2.5 -9.83301 -4.5 -14.5s-4.33301 -8.66699 -7 -12s-6 -5 -10 -5s-8.16699 1.16699 -12.5 3.5s-9.16602 3.5 -14.499 3.5z" />
    <glyph glyph-name="yaiso" unicode="&#x64a;" horiz-adv-x="651" arabic-form="isolated" 
d="M551 354c-19.333 0 -38.5029 -3.50195 -57.5029 -10.502s-36 -17.333 -51 -31s-27.333 -30 -37 -49s-14.5 -40.5 -14.5 -64.5c0 -6.66699 1.5 -14 4.5 -22s9.83301 -12 20.5 -12h114c10 0 19.333 -0.666992 28 -2s16.167 -4.66602 22.5 -9.99902s11.333 -13.833 15 -25.5
s5.5 -27.5 5.5 -47.5c0 -45.333 -5.83301 -82.833 -17.5 -112.5s-29.5 -53.167 -53.5 -70.5s-54.833 -29.666 -92.5 -36.999s-82.5 -11 -134.5 -11c-39.333 0 -74.833 6.33301 -106.5 19s-58.667 29 -81 49s-39.666 42.5 -51.999 67.5s-18.5 49.833 -18.5 74.5
c0 30.667 2.33301 57.834 7 81.501s10.667 44.5 18 62.5s15.333 33.833 24 47.5s17 26.167 25 37.5h60c-14.667 -27.333 -27.667 -56.5 -39 -87.5s-17 -61.5 -17 -91.5c0 -64 16.167 -110.667 48.5 -140s76.5 -44 132.5 -44c58.667 0 103.334 5 134.001 15
s52.5 22.667 65.5 38s20 32.166 21 50.499s1.5 35.833 1.5 52.5c0 8 -5.33301 12 -16 12h-72c-26 0 -47.5 1 -64.5 3s-30.5 5.5 -40.5 10.5s-17 12 -21 21s-6 20.5 -6 34.5c0 26 5.16699 54.167 15.5 84.5s26 58.333 47 84s47.833 47 80.5 64s71.667 25.5 117 25.5
c13.333 0 22.5 -2.83301 27.5 -8.5s7.5 -12.5 7.5 -20.5c0 -3.33301 -0.5 -7.5 -1.5 -12.5s-2.5 -9.83301 -4.5 -14.5s-4.33301 -8.66699 -7 -12s-6 -5 -10 -5s-8.16699 1.16699 -12.5 3.5s-9.16602 3.5 -14.499 3.5zM180.997 -283.002c0 16 5.33301 29.333 16 40
s23.667 16 39 16s28.166 -5.33301 38.499 -16s15.5 -24 15.5 -40c0 -15.333 -5.16699 -28 -15.5 -38s-23.166 -15 -38.499 -15s-28.333 5 -39 15s-16 22.667 -16 38zM344.997 -283.002c0 16 5.33301 29.333 16 40s23.667 16 39 16s28.166 -5.33301 38.499 -16
s15.5 -24 15.5 -40c0 -15.333 -5.16699 -28 -15.5 -38s-23.166 -15 -38.499 -15s-28.333 5 -39 15s-16 22.667 -16 38z" />
    <glyph glyph-name="alefwaslaiso" unicode="&#x671;" horiz-adv-x="230" arabic-form="isolated" 
 />
    <glyph glyph-name="piso.001" unicode="&#x67e;" horiz-adv-x="659" arabic-form="isolated" 
 />
    <glyph glyph-name="giso" unicode="&#x686;" horiz-adv-x="499" arabic-form="isolated" 
 />
    <glyph glyph-name="jehiso" unicode="&#x698;" horiz-adv-x="268" arabic-form="isolated" 
 />
    <glyph glyph-name="vehiso" unicode="&#x6a4;" horiz-adv-x="874" arabic-form="isolated" 
d="M824 105c0 -70 -25.0029 -105.002 -75.0029 -105.002h-506c-28 0 -54 2.33301 -78 7s-45 12.334 -63 23.001s-32 24.667 -42 42s-15 38.333 -15 63c0 37.333 3.5 69.5 10.5 96.5s15.333 50.167 25 69.5s19.834 36.166 30.501 50.499s19.667 27.833 27 40.5h70
c-23.333 -37.333 -42.5 -75 -57.5 -113s-22.833 -72.333 -23.5 -103s7.5 -55.667 24.5 -75s46.5 -29 88.5 -29h369c-14 6.66699 -29.167 15.834 -45.5 27.501s-31.166 25 -44.499 40s-24.5 31.333 -33.5 49s-13.5 36.167 -13.5 55.5c0 22 3.16699 43.833 9.5 65.5
s17 41.334 32 59.001s34.833 32 59.5 43s55.334 16.5 92.001 16.5c34 0 61.333 -7.66699 82 -23s36.667 -35 48 -59s19 -50.667 23 -80s6 -58.333 6 -87v-74zM746.997 93.998c0 48.667 -0.500977 89.833 -1.50098 123.5s-4.5 61 -10.5 82s-15.833 36.333 -29.5 46
s-33.167 14.5 -58.5 14.5c-19.333 0 -35.333 -2.16699 -48 -6.5s-22.667 -10.5 -30 -18.5s-12.333 -18 -15 -30s-4 -25.667 -4 -41c0 -20 4.83301 -39.667 14.5 -59s23.334 -37 41.001 -53s38.5 -29.167 62.5 -39.5s50.333 -16.5 79 -18.5zM492.996 545.997
c0 16 5.33301 29.333 16 40s23.667 16 39 16s28.166 -5.33301 38.499 -16s15.5 -24 15.5 -40c0 -15.333 -5.16699 -28 -15.5 -38s-23.166 -15 -38.499 -15s-28.333 5 -39 15s-16 22.667 -16 38zM656.996 545.997c0 16 5.33301 29.333 16 40s23.667 16 39 16
s28.166 -5.33301 38.499 -16s15.5 -24 15.5 -40c0 -15.333 -5.16699 -28 -15.5 -38s-23.166 -15 -38.499 -15s-28.333 5 -39 15s-16 22.667 -16 38zM572.996 681.997c0 16 5.33301 29.333 16 40s23.667 16 39 16s28.166 -5.33301 38.499 -16s15.5 -24 15.5 -40
c0 -15.333 -5.16699 -28 -15.5 -38s-23.166 -15 -38.499 -15s-28.333 5 -39 15s-16 22.667 -16 38z" />
    <glyph glyph-name="kehehiso" unicode="&#x6a9;" horiz-adv-x="645" arabic-form="isolated" 
 />
    <glyph glyph-name="gafiso" unicode="&#x6af;" horiz-adv-x="645" arabic-form="isolated" 
 />
    <glyph glyph-name="farsiyaiso" unicode="&#x6cc;" horiz-adv-x="764" arabic-form="isolated" 
 />
    <glyph glyph-name="alefwaslafina" unicode="&#x671;" horiz-adv-x="244" arabic-form="final" 
 />
    <glyph glyph-name="pfina" unicode="&#x67e;" horiz-adv-x="714" arabic-form="final" 
 />
    <glyph glyph-name="pini" unicode="&#x67e;" horiz-adv-x="249" arabic-form="initial" 
 />
    <glyph glyph-name="pmedi" unicode="&#x67e;" horiz-adv-x="279" arabic-form="medial" 
 />
    <glyph glyph-name="vehfina" unicode="&#x6a4;" horiz-adv-x="881" arabic-form="final" 
d="M896 72l-0.00292969 -72.0029h-653c-28 0 -54 2.33301 -78 7s-45 12.334 -63 23.001s-32 24.667 -42 42s-15 38.333 -15 63c0 37.333 3.5 69.5 10.5 96.5s15.333 50.167 25 69.5s19.834 36.166 30.501 50.499s19.667 27.833 27 40.5h70
c-23.333 -37.333 -42.5 -75 -57.5 -113s-22.833 -72.333 -23.5 -103s7.5 -55.667 24.5 -75s46.5 -29 88.5 -29h369c-14 6.66699 -29.167 15.834 -45.5 27.501s-31.166 25 -44.499 40s-24.5 31.333 -33.5 49s-13.5 36.167 -13.5 55.5c0 22 3.16699 43.833 9.5 65.5
s17 41.334 32 59.001s34.833 32 59.5 43s55.334 16.5 92.001 16.5c34 0 61.333 -7.66699 82 -23s36.667 -35 48 -59s19 -50.667 23 -80s6 -58.333 6 -87v-74c0 -6 -0.166992 -11.667 -0.5 -17s-0.833008 -10.666 -1.5 -15.999h74zM746.997 93.9971
c0 48.667 -0.500977 89.833 -1.50098 123.5s-4.5 61 -10.5 82s-15.833 36.333 -29.5 46s-33.167 14.5 -58.5 14.5c-19.333 0 -35.333 -2.16699 -48 -6.5s-22.667 -10.5 -30 -18.5s-12.333 -18 -15 -30s-4 -25.667 -4 -41c0 -20 4.83301 -39.667 14.5 -59
s23.334 -37 41.001 -53s38.5 -29.167 62.5 -39.5s50.333 -16.5 79 -18.5zM518.996 545.996c0 16 5.33301 29.333 16 40s23.667 16 39 16s28.166 -5.33301 38.499 -16s15.5 -24 15.5 -40c0 -15.333 -5.16699 -28 -15.5 -38s-23.166 -15 -38.499 -15s-28.333 5 -39 15
s-16 22.667 -16 38zM682.996 545.996c0 16 5.33301 29.333 16 40s23.667 16 39 16s28.166 -5.33301 38.499 -16s15.5 -24 15.5 -40c0 -15.333 -5.16699 -28 -15.5 -38s-23.166 -15 -38.499 -15s-28.333 5 -39 15s-16 22.667 -16 38zM598.996 681.996
c0 16 5.33301 29.333 16 40s23.667 16 39 16s28.166 -5.33301 38.499 -16s15.5 -24 15.5 -40c0 -15.333 -5.16699 -28 -15.5 -38s-23.166 -15 -38.499 -15s-28.333 5 -39 15s-16 22.667 -16 38z" />
    <glyph glyph-name="vehini" unicode="&#x6a4;" horiz-adv-x="487" arabic-form="initial" 
d="M445 105c0 -70 -25.002 -105.002 -75.002 -105.002h-385v72h245c-14 6.66699 -29.167 15.834 -45.5 27.501s-31.166 25 -44.499 40s-24.5 31.333 -33.5 49s-13.5 36.167 -13.5 55.5c0 22 3.16699 43.833 9.5 65.5s17 41.334 32 59.001s34.833 32 59.5 43
s55.334 16.5 92.001 16.5c34 0 61.333 -7.66699 82 -23s36.667 -35 48 -59s19 -50.667 23 -80s6 -58.333 6 -87v-74zM367.998 93.998c0 48.667 -0.500977 89.833 -1.50098 123.5s-4.5 61 -10.5 82s-15.833 36.333 -29.5 46s-33.167 14.5 -58.5 14.5
c-19.333 0 -35.333 -2.16699 -48 -6.5s-22.667 -10.5 -30 -18.5s-12.333 -18 -15 -30s-4 -25.667 -4 -41c0 -20 4.83301 -39.667 14.5 -59s23.334 -37 41.001 -53s38.5 -29.167 62.5 -39.5s50.333 -16.5 79 -18.5zM110.997 545.997c0 16 5.33301 29.333 16 40
s23.667 16 39 16s28.166 -5.33301 38.499 -16s15.5 -24 15.5 -40c0 -15.333 -5.16699 -28 -15.5 -38s-23.166 -15 -38.499 -15s-28.333 5 -39 15s-16 22.667 -16 38zM274.997 545.997c0 16 5.33301 29.333 16 40s23.667 16 39 16s28.166 -5.33301 38.499 -16
s15.5 -24 15.5 -40c0 -15.333 -5.16699 -28 -15.5 -38s-23.166 -15 -38.499 -15s-28.333 5 -39 15s-16 22.667 -16 38zM190.997 681.997c0 16 5.33301 29.333 16 40s23.667 16 39 16s28.166 -5.33301 38.499 -16s15.5 -24 15.5 -40c0 -15.333 -5.16699 -28 -15.5 -38
s-23.166 -15 -38.499 -15s-28.333 5 -39 15s-16 22.667 -16 38z" />
    <glyph glyph-name="vehmedi" unicode="&#x6a4;" horiz-adv-x="565" arabic-form="medial" 
d="M261 361c-24 0 -44.1689 -2.83203 -60.502 -8.49902s-29.666 -13.334 -39.999 -23.001s-17.833 -20.667 -22.5 -33s-7 -24.833 -7 -37.5c0 -39.333 10 -75 30 -107s53.333 -54.667 100 -68c47.333 12.667 81.666 35 102.999 67s32 68 32 108c0 12 -2.33301 24 -7 36
s-12.167 23 -22.5 33s-24.166 18 -41.499 24s-38.666 9 -63.999 9zM-15.002 0.000976562l-0.000976562 71.999h172c-37.333 23.333 -63.666 50 -78.999 80s-23 58.667 -23 86c0 28 4.5 53.667 13.5 77s22.167 43.5 39.5 60.5s39 30.167 65 39.5s55.667 14 89 14
c34.667 0 65.167 -4.66699 91.5 -14s48.333 -22.5 66 -39.5s31 -37.167 40 -60.5s13.5 -49 13.5 -77c0 -13.333 -2 -27.833 -6 -43.5s-10.167 -31 -18.5 -46s-18.833 -29.167 -31.5 -42.5s-27.667 -24.666 -45 -33.999h208v-72h-595zM130.997 546c0 16 5.33301 29.333 16 40
s23.667 16 39 16s28.166 -5.33301 38.499 -16s15.5 -24 15.5 -40c0 -15.333 -5.16699 -28 -15.5 -38s-23.166 -15 -38.499 -15s-28.333 5 -39 15s-16 22.667 -16 38zM294.997 546c0 16 5.33301 29.333 16 40s23.667 16 39 16s28.166 -5.33301 38.499 -16s15.5 -24 15.5 -40
c0 -15.333 -5.16699 -28 -15.5 -38s-23.166 -15 -38.499 -15s-28.333 5 -39 15s-16 22.667 -16 38zM210.997 682c0 16 5.33301 29.333 16 40s23.667 16 39 16s28.166 -5.33301 38.499 -16s15.5 -24 15.5 -40c0 -15.333 -5.16699 -28 -15.5 -38s-23.166 -15 -38.499 -15
s-28.333 5 -39 15s-16 22.667 -16 38z" />
    <glyph glyph-name="gfina" unicode="&#x686;" horiz-adv-x="532" arabic-form="final" 
 />
    <glyph glyph-name="gini" unicode="&#x686;" horiz-adv-x="510" arabic-form="initial" 
 />
    <glyph glyph-name="gmedi" unicode="&#x686;" horiz-adv-x="472" arabic-form="medial" 
 />
    <glyph glyph-name="jehfina" unicode="&#x698;" horiz-adv-x="294" arabic-form="final" 
 />
    <glyph glyph-name="kehehfina" unicode="&#x6a9;" horiz-adv-x="698" arabic-form="final" 
 />
    <glyph glyph-name="kafini" unicode="&#x6a9;" horiz-adv-x="495" arabic-form="initial" 
d="M413 0h-428.002v72h353v67c0 19.333 -6.16699 42 -18.5 68s-29.166 52 -50.499 78s-46.166 50.667 -74.499 74s-58.5 42 -90.5 56l5 123l356 129l-23 -96l-269 -89c14 -10 28.5 -21.167 43.5 -33.5s29.833 -25.5 44.5 -39.5s28.5 -28.333 41.5 -43s24.5 -28.667 34.5 -42
c21.333 -30 39.333 -60.5 54 -91.5s22 -62.167 22 -93.5v-67v-72z" />
    <glyph glyph-name="kafmedi" unicode="&#x6a9;" horiz-adv-x="542" arabic-form="medial" 
d="M557 0h-572.002v72h353v67c0 19.333 -6.16699 42 -18.5 68s-29.166 52 -50.499 78s-46.166 50.667 -74.499 74s-58.5 42 -90.5 56l5 123l356 129l-23 -96l-269 -89c14 -10 28.5 -21.167 43.5 -33.5s29.833 -25.5 44.5 -39.5s28.5 -28.333 41.5 -43s24.5 -28.667 34.5 -42
c21.333 -30 39.333 -60.5 54 -91.5s22 -62.167 22 -93.5v-67h144v-72z" />
    <glyph glyph-name="gaffina" unicode="&#x6af;" horiz-adv-x="708" arabic-form="final" 
 />
    <glyph glyph-name="gafini" unicode="&#x6af;" horiz-adv-x="431" arabic-form="initial" 
 />
    <glyph glyph-name="gafmedi" unicode="&#x6af;" horiz-adv-x="492" arabic-form="medial" 
 />
    <glyph glyph-name="kirsehini" unicode="&#x649;" horiz-adv-x="348" arabic-form="initial" 
d="M211 72v330l77 22v-424h-303v72h226z" />
    <glyph glyph-name="kirsehmedi" unicode="&#x649;" arabic-form="medial" 
d="M173 72v330l77 22v-352h162v-72h-427v72h188z" />
    <glyph glyph-name="alefma2sourafina" unicode="&#x6cc;" horiz-adv-x="853" arabic-form="final" 
d="M303 -151c-39.333 0 -74.833 6.33301 -106.5 19s-58.667 29 -81 49s-39.666 42.5 -51.999 67.5s-18.5 49.833 -18.5 74.5c0 30.667 2.33301 57.834 7 81.501s10.667 44.5 18 62.5s15.333 33.833 24 47.5s17 26.167 25 37.5h60c-14.667 -27.333 -27.667 -56.5 -39 -87.5
s-17 -61.5 -17 -91.5c0 -64 16.167 -110.667 48.5 -140s76.5 -44 132.5 -44c58.667 0 103.334 5 134.001 15s52.5 22.667 65.5 38s20 32.166 21 50.499s1.5 35.833 1.5 52.5c0 8 -5.33301 12 -16 12h-72c-26 0 -47.5 1 -64.5 3s-30.5 5.5 -40.5 10.5s-17 12 -21 21
s-6 20.5 -6 34.5c0 26 5.16699 54.167 15.5 84.5s26 58.333 47 84s47.833 47 80.5 64s71.667 25.5 117 25.5c30 0 56 -5.66699 78 -17s40.833 -26.333 56.5 -45s28.5 -40.167 38.5 -64.5s18.167 -49.333 24.5 -75s11.166 -51.334 14.499 -77.001
s5.66602 -48.834 6.99902 -69.501h98v-72h-177c0 54.667 -2.5 101.5 -7.5 140.5s-11.667 71.5 -20 97.5s-17.833 46.667 -28.5 62s-21.5 27 -32.5 35s-21.833 13 -32.5 15s-20 3 -28 3c-19.333 0 -38.833 -3.5 -58.5 -10.5s-37.5 -17.167 -53.5 -30.5s-29 -29.5 -39 -48.5
s-15 -40.5 -15 -64.5c0 -6.66699 1.5 -14 4.5 -22s9.83301 -12 20.5 -12h114c10 0 19.333 -0.666992 28 -2s16.167 -4.66602 22.5 -9.99902s11.333 -13.833 15 -25.5s5.5 -27.5 5.5 -47.5c0 -45.333 -5.83301 -82.833 -17.5 -112.5s-29.5 -53.167 -53.5 -70.5
s-54.833 -29.666 -92.5 -36.999s-82.5 -11 -134.5 -11z" />
    <glyph glyph-name="yaini" unicode="&#x6cc;" horiz-adv-x="348" arabic-form="initial" 
d="M211 72v330l77 22v-424h-303v72h226zM11 -142c0 16 5.33301 29.333 16 40s23.667 16 39 16s28.166 -5.33301 38.499 -16s15.5 -24 15.5 -40c0 -15.333 -5.16699 -28 -15.5 -38s-23.166 -15 -38.499 -15s-28.333 5 -39 15s-16 22.667 -16 38zM175 -142
c0 16 5.33301 29.333 16 40s23.667 16 39 16s28.166 -5.33301 38.499 -16s15.5 -24 15.5 -40c0 -15.333 -5.16699 -28 -15.5 -38s-23.166 -15 -38.499 -15s-28.333 5 -39 15s-16 22.667 -16 38z" />
    <glyph glyph-name="yamedi" unicode="&#x6cc;" arabic-form="medial" 
d="M173 72v330l77 22v-352h162v-72h-427v72h188zM71 -142c0 16 5.33301 29.333 16 40s23.667 16 39 16s28.166 -5.33301 38.499 -16s15.5 -24 15.5 -40c0 -15.333 -5.16699 -28 -15.5 -38s-23.166 -15 -38.499 -15s-28.333 5 -39 15s-16 22.667 -16 38zM235 -142
c0 16 5.33301 29.333 16 40s23.667 16 39 16s28.166 -5.33301 38.499 -16s15.5 -24 15.5 -40c0 -15.333 -5.16699 -28 -15.5 -38s-23.166 -15 -38.499 -15s-28.333 5 -39 15s-16 22.667 -16 38z" />
    <glyph glyph-name="alefmaddaabovefina" unicode="&#x622;" horiz-adv-x="248" arabic-form="final" 
d="M74 642l77 22v-592h112v-72h-189v642zM-127 783c17.333 -9.33301 43.5 -15.6689 78.5 -19.002s73.5 -1.33301 115.5 6l36 6.5l36 6.5c58.667 10.667 106.667 10.834 144 0.500977s66.666 -31.833 87.999 -64.5c-16.667 9.33301 -41.667 16 -75 20s-71 2.33301 -113 -5
c-13.333 -2.66699 -27 -5.66699 -41 -9s-27.667 -6 -41 -8c-55.333 -9.33301 -102.166 -8.66602 -140.499 2.00098s-67.5 32 -87.5 64z" />
    <glyph glyph-name="alefhamzaabovefina" unicode="&#x623;" horiz-adv-x="248" arabic-form="final" 
d="M74 642l77 22v-592h112v-72h-189v642zM-8 734l68.001 20.999c-14.667 3.33301 -26 12.333 -34 27s-12 28.334 -12 41.001c0 18 3.66699 34.5 11 49.5s17 27.833 29 38.5s25.5 19.167 40.5 25.5s30.167 9.83301 45.5 10.5s30 -1.33301 44 -6s26 -13 36 -25l-42 -38
c-8.66699 6.66699 -19 11 -31 13s-23.5 1.5 -34.5 -1.5s-20.333 -8.5 -28 -16.5s-11.5 -18 -11.5 -30c0 -10 2.16699 -18.833 6.5 -26.5s9.66602 -14.167 15.999 -19.5s13 -9.5 20 -12.5s13.5 -4.83301 19.5 -5.5l89 26v-53l-232 -69v51z" />
    <glyph glyph-name="wawhamzafina" unicode="&#x624;" horiz-adv-x="482" arabic-form="final" 
d="M409 0c-0.666992 -16 -4.66797 -36.168 -12.001 -60.501s-20 -48 -38 -71s-42.333 -43.667 -73 -62s-69.667 -29.5 -117 -33.5l-22 70c30.667 2 58.667 9 84 21c10.667 4.66699 21.334 10.834 32.001 18.501s20.5 17 29.5 28s16.833 23.833 23.5 38.5s11 31.667 13 51
h-113c-60.667 0 -106 13.5 -136 40.5s-45 68.833 -45 125.5c0 26 6.33301 51.833 19 77.5s33 49.5 61 71.5s63.833 41.333 107.5 58s96.5 29.334 158.5 38.001c8 -48 14.833 -100.333 20.5 -157s8.5 -117.334 8.5 -182.001h87v-72h-88zM330.999 71.999
c0 6 -0.167969 11.999 -0.500977 17.999s-0.5 12 -0.5 18c0 16 -0.333008 33.167 -1 51.5s-1.66699 36.833 -3 55.5s-2.83301 37.334 -4.5 56.001s-3.5 36 -5.5 52c-70 -16.667 -120.5 -37.5 -151.5 -62.5s-47.167 -55.833 -48.5 -92.5c0 -10 1.16699 -20.5 3.5 -31.5
s6.83301 -21.333 13.5 -31s15.334 -17.667 26.001 -24s24.667 -9.5 42 -9.5h130zM144.998 482.998l68.001 20.999c-14.667 3.33301 -26 12.333 -34 27s-12 28.334 -12 41.001c0 18 3.66699 34.5 11 49.5s17 27.833 29 38.5s25.5 19.167 40.5 25.5s30.167 9.83301 45.5 10.5
s30 -1.33301 44 -6s26 -13 36 -25l-42 -38c-8.66699 6.66699 -19 11 -31 13s-23.5 1.5 -34.5 -1.5s-20.333 -8.5 -28 -16.5s-11.5 -18 -11.5 -30c0 -10 2.16699 -18.833 6.5 -26.5s9.66602 -14.167 15.999 -19.5s13 -9.5 20 -12.5s13.5 -4.83301 19.5 -5.5l89 26v-53
l-232 -69v51z" />
    <glyph glyph-name="alefhamzabelowfina" unicode="&#x625;" horiz-adv-x="248" arabic-form="final" 
d="M74 642l77 22v-592h112v-72h-189v642zM8 -273l68.001 20.999c-14.667 3.33301 -26 12.333 -34 27s-12 28.334 -12 41.001c0 18 3.66699 34.5 11 49.5s17 27.833 29 38.5s25.5 19.167 40.5 25.5s30.167 9.83301 45.5 10.5s30 -1.33301 44 -6s26 -13 36 -25l-42 -38
c-8.66699 6.66699 -19 11 -31 13s-23.5 1.5 -34.5 -1.5s-20.333 -8.5 -28 -16.5s-11.5 -18 -11.5 -30c0 -10 2.16699 -18.833 6.5 -26.5s9.66602 -14.167 15.999 -19.5s13 -9.5 20 -12.5s13.5 -4.83301 19.5 -5.5l89 26v-53l-232 -69v51z" />
    <glyph glyph-name="hamzakirsehfina" unicode="&#x626;" horiz-adv-x="853" arabic-form="final" 
d="M303 -151c-39.333 0 -74.833 6.33301 -106.5 19s-58.667 29 -81 49s-39.666 42.5 -51.999 67.5s-18.5 49.833 -18.5 74.5c0 30.667 2.33301 57.834 7 81.501s10.667 44.5 18 62.5s15.333 33.833 24 47.5s17 26.167 25 37.5h60c-14.667 -27.333 -27.667 -56.5 -39 -87.5
s-17 -61.5 -17 -91.5c0 -64 16.167 -110.667 48.5 -140s76.5 -44 132.5 -44c58.667 0 103.334 5 134.001 15s52.5 22.667 65.5 38s20 32.166 21 50.499s1.5 35.833 1.5 52.5c0 8 -5.33301 12 -16 12h-72c-26 0 -47.5 1 -64.5 3s-30.5 5.5 -40.5 10.5s-17 12 -21 21
s-6 20.5 -6 34.5c0 26 5.16699 54.167 15.5 84.5s26 58.333 47 84s47.833 47 80.5 64s71.667 25.5 117 25.5c30 0 56 -5.66699 78 -17s40.833 -26.333 56.5 -45s28.5 -40.167 38.5 -64.5s18.167 -49.333 24.5 -75s11.166 -51.334 14.499 -77.001
s5.66602 -48.834 6.99902 -69.501h98v-72h-177c0 54.667 -2.5 101.5 -7.5 140.5s-11.667 71.5 -20 97.5s-17.833 46.667 -28.5 62s-21.5 27 -32.5 35s-21.833 13 -32.5 15s-20 3 -28 3c-19.333 0 -38.833 -3.5 -58.5 -10.5s-37.5 -17.167 -53.5 -30.5s-29 -29.5 -39 -48.5
s-15 -40.5 -15 -64.5c0 -6.66699 1.5 -14 4.5 -22s9.83301 -12 20.5 -12h114c10 0 19.333 -0.666992 28 -2s16.167 -4.66602 22.5 -9.99902s11.333 -13.833 15 -25.5s5.5 -27.5 5.5 -47.5c0 -45.333 -5.83301 -82.833 -17.5 -112.5s-29.5 -53.167 -53.5 -70.5
s-54.833 -29.666 -92.5 -36.999s-82.5 -11 -134.5 -11zM96 394l68.001 20.999c-14.667 3.33301 -26 12.333 -34 27s-12 28.334 -12 41.001c0 18 3.66699 34.5 11 49.5s17 27.833 29 38.5s25.5 19.167 40.5 25.5s30.167 9.83301 45.5 10.5s30 -1.33301 44 -6s26 -13 36 -25
l-42 -38c-8.66699 6.66699 -19 11 -31 13s-23.5 1.5 -34.5 -1.5s-20.333 -8.5 -28 -16.5s-11.5 -18 -11.5 -30c0 -10 2.16699 -18.833 6.5 -26.5s9.66602 -14.167 15.999 -19.5s13 -9.5 20 -12.5s13.5 -4.83301 19.5 -5.5l89 26v-53l-232 -69v51z" />
    <glyph glyph-name="hamzakirsehini" unicode="&#x626;" horiz-adv-x="348" arabic-form="initial" 
d="M211 72v330l77 22v-424h-303v72h226zM88 516l68.001 20.999c-14.667 3.33301 -26 12.333 -34 27s-12 28.334 -12 41.001c0 18 3.66699 34.5 11 49.5s17 27.833 29 38.5s25.5 19.167 40.5 25.5s30.167 9.83301 45.5 10.5s30 -1.33301 44 -6s26 -13 36 -25l-42 -38
c-8.66699 6.66699 -19 11 -31 13s-23.5 1.5 -34.5 -1.5s-20.333 -8.5 -28 -16.5s-11.5 -18 -11.5 -30c0 -10 2.16699 -18.833 6.5 -26.5s9.66602 -14.167 15.999 -19.5s13 -9.5 20 -12.5s13.5 -4.83301 19.5 -5.5l89 26v-53l-232 -69v51z" />
    <glyph glyph-name="hamzakirsehmedi" unicode="&#x626;" arabic-form="medial" 
d="M173 72v330l77 22v-352h162v-72h-427v72h188zM88 516l68.001 20.999c-14.667 3.33301 -26 12.333 -34 27s-12 28.334 -12 41.001c0 18 3.66699 34.5 11 49.5s17 27.833 29 38.5s25.5 19.167 40.5 25.5s30.167 9.83301 45.5 10.5s30 -1.33301 44 -6s26 -13 36 -25l-42 -38
c-8.66699 6.66699 -19 11 -31 13s-23.5 1.5 -34.5 -1.5s-20.333 -8.5 -28 -16.5s-11.5 -18 -11.5 -30c0 -10 2.16699 -18.833 6.5 -26.5s9.66602 -14.167 15.999 -19.5s13 -9.5 20 -12.5s13.5 -4.83301 19.5 -5.5l89 26v-53l-232 -69v51z" />
    <glyph glyph-name="aleffina" unicode="&#x627;" horiz-adv-x="248" arabic-form="final" 
d="M74 642l77 22v-592h112v-72h-189v642z" />
    <glyph glyph-name="behfina" unicode="&#x628;" horiz-adv-x="850" arabic-form="final" 
d="M865 72l-0.000976562 -72h-93h-529c-28 -0 -54 2.33301 -78 7s-45 12.334 -63 23.001s-32 24.667 -42 42s-15 38.333 -15 63c0 37.333 3.5 69.5 10.5 96.5s15.333 50.167 25 69.5s19.834 36.166 30.501 50.499s19.667 27.833 27 40.5h70
c-23.333 -37.333 -42.5 -75 -57.5 -113s-22.833 -72.333 -23.5 -103s7.5 -55.667 24.5 -75s46.5 -29 88.5 -29h455v330l77 22v-352h93zM376.999 -141c0 16 5.33301 29.333 16 40s23.667 16 39 16s28.166 -5.33301 38.499 -16s15.5 -24 15.5 -40
c0 -15.333 -5.16699 -28 -15.5 -38s-23.166 -15 -38.499 -15s-28.333 5 -39 15s-16 22.667 -16 38z" />
    <glyph glyph-name="behini" unicode="&#x628;" horiz-adv-x="348" arabic-form="initial" 
d="M211 72v330l77 22v-424h-303v72h226zM110 -141c0 16 5.33301 29.333 16 40s23.667 16 39 16s28.166 -5.33301 38.499 -16s15.5 -24 15.5 -40c0 -15.333 -5.16699 -28 -15.5 -38s-23.166 -15 -38.499 -15s-28.333 5 -39 15s-16 22.667 -16 38z" />
    <glyph glyph-name="behmedi" unicode="&#x628;" arabic-form="medial" 
d="M173 72v330l77 22v-352h162v-72h-427v72h188zM165 -141c0 16 5.33301 29.333 16 40s23.667 16 39 16s28.166 -5.33301 38.499 -16s15.5 -24 15.5 -40c0 -15.333 -5.16699 -28 -15.5 -38s-23.166 -15 -38.499 -15s-28.333 5 -39 15s-16 22.667 -16 38z" />
    <glyph glyph-name="tehmarboutafina" unicode="&#x629;" horiz-adv-x="588" arabic-form="final" 
d="M74 182c0 26.667 7.33301 52.667 22 78s37.667 48.5 69 69.5s71.333 39.167 120 54.5s106.667 26.666 174 33.999v-346h144v-72h-180c-7.33301 4.66699 -13.5 9.83398 -18.5 15.501s-9.16699 10.834 -12.5 15.501c-3.33301 5.33301 -6 10.666 -8 15.999
c-3.33301 -8.66699 -10 -16.667 -20 -24c-8.66699 -6 -21.167 -11.333 -37.5 -16s-38.5 -7 -66.5 -7c-64 0 -111 16.167 -141 48.5s-45 76.833 -45 133.5zM160 181c0 -23.333 2.83105 -42.166 8.49805 -56.499s12.834 -25.333 21.501 -33s18.5 -12.834 29.5 -15.501
s21.833 -4 32.5 -4h130v259c-40.667 -7.33301 -75.167 -16.333 -103.5 -27s-51.166 -22.5 -68.499 -35.5s-30 -26.833 -38 -41.5s-12 -30 -12 -46zM156.998 546c0 16 5.33301 29.333 16 40s23.667 16 39 16s28.166 -5.33301 38.499 -16s15.5 -24 15.5 -40
c0 -15.333 -5.16699 -28 -15.5 -38s-23.166 -15 -38.499 -15s-28.333 5 -39 15s-16 22.667 -16 38zM320.998 546c0 16 5.33301 29.333 16 40s23.667 16 39 16s28.166 -5.33301 38.499 -16s15.5 -24 15.5 -40c0 -15.333 -5.16699 -28 -15.5 -38s-23.166 -15 -38.499 -15
s-28.333 5 -39 15s-16 22.667 -16 38z" />
    <glyph glyph-name="tafina" unicode="&#x62a;" horiz-adv-x="850" arabic-form="final" 
d="M865 72l-0.000976562 -72h-93h-529c-28 -0 -54 2.33301 -78 7s-45 12.334 -63 23.001s-32 24.667 -42 42s-15 38.333 -15 63c0 37.333 3.5 69.5 10.5 96.5s15.333 50.167 25 69.5s19.834 36.166 30.501 50.499s19.667 27.833 27 40.5h70
c-23.333 -37.333 -42.5 -75 -57.5 -113s-22.833 -72.333 -23.5 -103s7.5 -55.667 24.5 -75s46.5 -29 88.5 -29h455v330l77 22v-352h93zM309.999 545c0 16 5.33301 29.333 16 40s23.667 16 39 16s28.166 -5.33301 38.499 -16s15.5 -24 15.5 -40
c0 -15.333 -5.16699 -28 -15.5 -38s-23.166 -15 -38.499 -15s-28.333 5 -39 15s-16 22.667 -16 38zM473.999 545c0 16 5.33301 29.333 16 40s23.667 16 39 16s28.166 -5.33301 38.499 -16s15.5 -24 15.5 -40c0 -15.333 -5.16699 -28 -15.5 -38s-23.166 -15 -38.499 -15
s-28.333 5 -39 15s-16 22.667 -16 38z" />
    <glyph glyph-name="taini" unicode="&#x62a;" horiz-adv-x="348" arabic-form="initial" 
d="M211 72v330l77 22v-424h-303v72h226zM33 545c0 16 5.33301 29.333 16 40s23.667 16 39 16s28.166 -5.33301 38.499 -16s15.5 -24 15.5 -40c0 -15.333 -5.16699 -28 -15.5 -38s-23.166 -15 -38.499 -15s-28.333 5 -39 15s-16 22.667 -16 38zM197 545
c0 16 5.33301 29.333 16 40s23.667 16 39 16s28.166 -5.33301 38.499 -16s15.5 -24 15.5 -40c0 -15.333 -5.16699 -28 -15.5 -38s-23.166 -15 -38.499 -15s-28.333 5 -39 15s-16 22.667 -16 38z" />
    <glyph glyph-name="tamedi" unicode="&#x62a;" arabic-form="medial" 
d="M173 72v330l77 22v-352h162v-72h-427v72h188zM76 545c0 16 5.33301 29.333 16 40s23.667 16 39 16s28.166 -5.33301 38.499 -16s15.5 -24 15.5 -40c0 -15.333 -5.16699 -28 -15.5 -38s-23.166 -15 -38.499 -15s-28.333 5 -39 15s-16 22.667 -16 38zM240 545
c0 16 5.33301 29.333 16 40s23.667 16 39 16s28.166 -5.33301 38.499 -16s15.5 -24 15.5 -40c0 -15.333 -5.16699 -28 -15.5 -38s-23.166 -15 -38.499 -15s-28.333 5 -39 15s-16 22.667 -16 38z" />
    <glyph glyph-name="thafina" unicode="&#x62b;" horiz-adv-x="850" arabic-form="final" 
d="M865 72l-0.000976562 -72h-93h-529c-28 -0 -54 2.33301 -78 7s-45 12.334 -63 23.001s-32 24.667 -42 42s-15 38.333 -15 63c0 37.333 3.5 69.5 10.5 96.5s15.333 50.167 25 69.5s19.834 36.166 30.501 50.499s19.667 27.833 27 40.5h70
c-23.333 -37.333 -42.5 -75 -57.5 -113s-22.833 -72.333 -23.5 -103s7.5 -55.667 24.5 -75s46.5 -29 88.5 -29h455v330l77 22v-352h93zM306.999 546c0 16 5.33301 29.333 16 40s23.667 16 39 16s28.166 -5.33301 38.499 -16s15.5 -24 15.5 -40
c0 -15.333 -5.16699 -28 -15.5 -38s-23.166 -15 -38.499 -15s-28.333 5 -39 15s-16 22.667 -16 38zM470.999 546c0 16 5.33301 29.333 16 40s23.667 16 39 16s28.166 -5.33301 38.499 -16s15.5 -24 15.5 -40c0 -15.333 -5.16699 -28 -15.5 -38s-23.166 -15 -38.499 -15
s-28.333 5 -39 15s-16 22.667 -16 38zM386.999 682c0 16 5.33301 29.333 16 40s23.667 16 39 16s28.166 -5.33301 38.499 -16s15.5 -24 15.5 -40c0 -15.333 -5.16699 -28 -15.5 -38s-23.166 -15 -38.499 -15s-28.333 5 -39 15s-16 22.667 -16 38z" />
    <glyph glyph-name="thaini" unicode="&#x62b;" horiz-adv-x="348" arabic-form="initial" 
d="M211 72v330l77 22v-424h-303v72h226zM37 546c0 16 5.33301 29.333 16 40s23.667 16 39 16s28.166 -5.33301 38.499 -16s15.5 -24 15.5 -40c0 -15.333 -5.16699 -28 -15.5 -38s-23.166 -15 -38.499 -15s-28.333 5 -39 15s-16 22.667 -16 38zM201 546
c0 16 5.33301 29.333 16 40s23.667 16 39 16s28.166 -5.33301 38.499 -16s15.5 -24 15.5 -40c0 -15.333 -5.16699 -28 -15.5 -38s-23.166 -15 -38.499 -15s-28.333 5 -39 15s-16 22.667 -16 38zM117 682c0 16 5.33301 29.333 16 40s23.667 16 39 16
s28.166 -5.33301 38.499 -16s15.5 -24 15.5 -40c0 -15.333 -5.16699 -28 -15.5 -38s-23.166 -15 -38.499 -15s-28.333 5 -39 15s-16 22.667 -16 38z" />
    <glyph glyph-name="thamedi" unicode="&#x62b;" arabic-form="medial" 
d="M173 72v330l77 22v-352h162v-72h-427v72h188zM73 546c0 16 5.33301 29.333 16 40s23.667 16 39 16s28.166 -5.33301 38.499 -16s15.5 -24 15.5 -40c0 -15.333 -5.16699 -28 -15.5 -38s-23.166 -15 -38.499 -15s-28.333 5 -39 15s-16 22.667 -16 38zM237 546
c0 16 5.33301 29.333 16 40s23.667 16 39 16s28.166 -5.33301 38.499 -16s15.5 -24 15.5 -40c0 -15.333 -5.16699 -28 -15.5 -38s-23.166 -15 -38.499 -15s-28.333 5 -39 15s-16 22.667 -16 38zM153 682c0 16 5.33301 29.333 16 40s23.667 16 39 16
s28.166 -5.33301 38.499 -16s15.5 -24 15.5 -40c0 -15.333 -5.16699 -28 -15.5 -38s-23.166 -15 -38.499 -15s-28.333 5 -39 15s-16 22.667 -16 38z" />
    <glyph glyph-name="jeemfina" unicode="&#x62c;" horiz-adv-x="667" arabic-form="final" 
d="M603 218c-28 1.33301 -55.8359 0.671875 -83.5029 -1.99512s-54.167 -7.33398 -79.5 -14.001c0.666992 -18 4.66699 -34.833 12 -50.5s16.833 -29.334 28.5 -41.001s24.834 -21 39.501 -28s29.667 -10.5 45 -10.5h117v-72h-130c-27.333 0 -51.666 5.83301 -72.999 17.5
s-39.333 26.5 -54 44.5s-25.667 37.667 -33 59s-10.333 42 -9 62c-36.667 -14 -70.334 -30.833 -101.001 -50.5s-57.167 -41.334 -79.5 -65.001s-39.833 -48.167 -52.5 -73.5s-19 -50.333 -19 -75c0 -29.333 6.83301 -54.166 20.5 -74.499s32.834 -36.833 57.501 -49.5
s54.334 -22 89.001 -28s73 -9 115 -9c18.667 0 38 0.666992 58 2s40.667 3.33301 62 6l-1 -60c-59.333 -16 -116.666 -24 -171.999 -24c-38 0 -75.5 4.5 -112.5 13.5s-70.333 22.167 -100 39.5s-53.667 38.666 -72 63.999s-27.5 54.666 -27.5 87.999
c0 42 8.83301 83 26.5 123s43.334 77.167 77.001 111.5s74.5 64.666 122.5 90.999s102.667 47.166 164 62.499c-9.33301 2.66699 -22.333 7.66699 -39 15s-35 14.833 -55 22.5s-40.667 14.5 -62 20.5s-41.333 9 -60 9c-8.66699 0 -18.334 -1.5 -29.001 -4.5
s-21.5 -7.33301 -32.5 -13s-21.833 -12.667 -32.5 -21s-20.334 -17.833 -29.001 -28.5l-54 46c10.667 12.667 23.334 25.167 38.001 37.5s30.5 23.333 47.5 33s34.5 17.5 52.5 23.5s35.667 9 53 9c19.333 0 43.666 -6.16699 72.999 -18.5s64 -25.166 104 -38.499
c38 -12.667 71.833 -22 101.5 -28s59.167 -9.33301 88.5 -10v-111zM276.997 -66.9941c0 16 5.33301 29.333 16 40s23.667 16 39 16s28.166 -5.33301 38.499 -16s15.5 -24 15.5 -40c0 -15.333 -5.16699 -28 -15.5 -38s-23.166 -15 -38.499 -15s-28.333 5 -39 15
s-16 22.667 -16 38z" />
    <glyph glyph-name="jeemini" unicode="&#x62c;" horiz-adv-x="681" arabic-form="initial" 
d="M631 0h-645.004l-1 72h502c-19.333 39.333 -38 75.5 -56 108.5s-35.5 61.5 -52.5 85.5s-34 42.833 -51 56.5s-34.5 20.5 -52.5 20.5c-17.333 0 -35 -7 -53 -21s-35.667 -31.667 -53 -53l-51 46c12.667 14 25.834 27.5 39.501 40.5s28.167 24.667 43.5 35
s31.5 18.5 48.5 24.5s35.5 9 55.5 9c22 0 42.333 -6.83301 61 -20.5s37.334 -33.5 56.001 -59.5s38.834 -58 60.501 -96l74.5 -130c9.33301 -16 20.333 -27.667 33 -35s26.334 -11 41.001 -11v-72zM250.996 -141c0 16 5.33301 29.333 16 40s23.667 16 39 16
s28.166 -5.33301 38.499 -16s15.5 -24 15.5 -40c0 -15.333 -5.16699 -28 -15.5 -38s-23.166 -15 -38.499 -15s-28.333 5 -39 15s-16 22.667 -16 38z" />
    <glyph glyph-name="jeemmedi" unicode="&#x62c;" horiz-adv-x="656" arabic-form="medial" 
d="M671 0h-685.004l-1 72h502c-19.333 39.333 -38 75.5 -56 108.5s-35.5 61.5 -52.5 85.5s-34 42.833 -51 56.5s-34.5 20.5 -52.5 20.5c-17.333 0 -35 -7 -53 -21s-35.667 -31.667 -53 -53l-51 46c12.667 14 25.834 27.5 39.501 40.5s28.167 24.667 43.5 35
s31.5 18.5 48.5 24.5s35.5 9 55.5 9c22 0 42.333 -6.83301 61 -20.5s37.334 -33.5 56.001 -59.5s38.834 -58 60.501 -96l74.5 -130c9.33301 -16 20.333 -27.667 33 -35s26.334 -11 41.001 -11h40v-72zM249.996 -141c0 16 5.33301 29.333 16 40s23.667 16 39 16
s28.166 -5.33301 38.499 -16s15.5 -24 15.5 -40c0 -15.333 -5.16699 -28 -15.5 -38s-23.166 -15 -38.499 -15s-28.333 5 -39 15s-16 22.667 -16 38z" />
    <glyph glyph-name="haafina" unicode="&#x62d;" horiz-adv-x="667" arabic-form="final" 
d="M603 218c-28 1.33301 -55.8359 0.671875 -83.5029 -1.99512s-54.167 -7.33398 -79.5 -14.001c0.666992 -18 4.66699 -34.833 12 -50.5s16.833 -29.334 28.5 -41.001s24.834 -21 39.501 -28s29.667 -10.5 45 -10.5h117v-72h-130c-27.333 0 -51.666 5.83301 -72.999 17.5
s-39.333 26.5 -54 44.5s-25.667 37.667 -33 59s-10.333 42 -9 62c-36.667 -14 -70.334 -30.833 -101.001 -50.5s-57.167 -41.334 -79.5 -65.001s-39.833 -48.167 -52.5 -73.5s-19 -50.333 -19 -75c0 -29.333 6.83301 -54.166 20.5 -74.499s32.834 -36.833 57.501 -49.5
s54.334 -22 89.001 -28s73 -9 115 -9c18.667 0 38 0.666992 58 2s40.667 3.33301 62 6l-1 -60c-59.333 -16 -116.666 -24 -171.999 -24c-38 0 -75.5 4.5 -112.5 13.5s-70.333 22.167 -100 39.5s-53.667 38.666 -72 63.999s-27.5 54.666 -27.5 87.999
c0 42 8.83301 83 26.5 123s43.334 77.167 77.001 111.5s74.5 64.666 122.5 90.999s102.667 47.166 164 62.499c-9.33301 2.66699 -22.333 7.66699 -39 15s-35 14.833 -55 22.5s-40.667 14.5 -62 20.5s-41.333 9 -60 9c-8.66699 0 -18.334 -1.5 -29.001 -4.5
s-21.5 -7.33301 -32.5 -13s-21.833 -12.667 -32.5 -21s-20.334 -17.833 -29.001 -28.5l-54 46c10.667 12.667 23.334 25.167 38.001 37.5s30.5 23.333 47.5 33s34.5 17.5 52.5 23.5s35.667 9 53 9c19.333 0 43.666 -6.16699 72.999 -18.5s64 -25.166 104 -38.499
c38 -12.667 71.833 -22 101.5 -28s59.167 -9.33301 88.5 -10v-111z" />
    <glyph glyph-name="haaini" unicode="&#x62d;" horiz-adv-x="681" arabic-form="initial" 
d="M631 0h-645.004l-1 72h502c-19.333 39.333 -38 75.5 -56 108.5s-35.5 61.5 -52.5 85.5s-34 42.833 -51 56.5s-34.5 20.5 -52.5 20.5c-17.333 0 -35 -7 -53 -21s-35.667 -31.667 -53 -53l-51 46c12.667 14 25.834 27.5 39.501 40.5s28.167 24.667 43.5 35
s31.5 18.5 48.5 24.5s35.5 9 55.5 9c22 0 42.333 -6.83301 61 -20.5s37.334 -33.5 56.001 -59.5s38.834 -58 60.501 -96l74.5 -130c9.33301 -16 20.333 -27.667 33 -35s26.334 -11 41.001 -11v-72z" />
    <glyph glyph-name="haamedi" unicode="&#x62d;" horiz-adv-x="656" arabic-form="medial" 
d="M671 0h-685.004l-1 72h502c-19.333 39.333 -38 75.5 -56 108.5s-35.5 61.5 -52.5 85.5s-34 42.833 -51 56.5s-34.5 20.5 -52.5 20.5c-17.333 0 -35 -7 -53 -21s-35.667 -31.667 -53 -53l-51 46c12.667 14 25.834 27.5 39.501 40.5s28.167 24.667 43.5 35
s31.5 18.5 48.5 24.5s35.5 9 55.5 9c22 0 42.333 -6.83301 61 -20.5s37.334 -33.5 56.001 -59.5s38.834 -58 60.501 -96l74.5 -130c9.33301 -16 20.333 -27.667 33 -35s26.334 -11 41.001 -11h40v-72z" />
    <glyph glyph-name="khafina" unicode="&#x62e;" horiz-adv-x="667" arabic-form="final" 
d="M603 218c-28 1.33301 -55.8359 0.671875 -83.5029 -1.99512s-54.167 -7.33398 -79.5 -14.001c0.666992 -18 4.66699 -34.833 12 -50.5s16.833 -29.334 28.5 -41.001s24.834 -21 39.501 -28s29.667 -10.5 45 -10.5h117v-72h-130c-27.333 0 -51.666 5.83301 -72.999 17.5
s-39.333 26.5 -54 44.5s-25.667 37.667 -33 59s-10.333 42 -9 62c-36.667 -14 -70.334 -30.833 -101.001 -50.5s-57.167 -41.334 -79.5 -65.001s-39.833 -48.167 -52.5 -73.5s-19 -50.333 -19 -75c0 -29.333 6.83301 -54.166 20.5 -74.499s32.834 -36.833 57.501 -49.5
s54.334 -22 89.001 -28s73 -9 115 -9c18.667 0 38 0.666992 58 2s40.667 3.33301 62 6l-1 -60c-59.333 -16 -116.666 -24 -171.999 -24c-38 0 -75.5 4.5 -112.5 13.5s-70.333 22.167 -100 39.5s-53.667 38.666 -72 63.999s-27.5 54.666 -27.5 87.999
c0 42 8.83301 83 26.5 123s43.334 77.167 77.001 111.5s74.5 64.666 122.5 90.999s102.667 47.166 164 62.499c-9.33301 2.66699 -22.333 7.66699 -39 15s-35 14.833 -55 22.5s-40.667 14.5 -62 20.5s-41.333 9 -60 9c-8.66699 0 -18.334 -1.5 -29.001 -4.5
s-21.5 -7.33301 -32.5 -13s-21.833 -12.667 -32.5 -21s-20.334 -17.833 -29.001 -28.5l-54 46c10.667 12.667 23.334 25.167 38.001 37.5s30.5 23.333 47.5 33s34.5 17.5 52.5 23.5s35.667 9 53 9c19.333 0 43.666 -6.16699 72.999 -18.5s64 -25.166 104 -38.499
c38 -12.667 71.833 -22 101.5 -28s59.167 -9.33301 88.5 -10v-111zM270.997 546.006c0 16 5.33301 29.333 16 40s23.667 16 39 16s28.166 -5.33301 38.499 -16s15.5 -24 15.5 -40c0 -15.333 -5.16699 -28 -15.5 -38s-23.166 -15 -38.499 -15s-28.333 5 -39 15
s-16 22.667 -16 38z" />
    <glyph glyph-name="khaini" unicode="&#x62e;" horiz-adv-x="681" arabic-form="initial" 
d="M631 0h-645.004l-1 72h502c-19.333 39.333 -38 75.5 -56 108.5s-35.5 61.5 -52.5 85.5s-34 42.833 -51 56.5s-34.5 20.5 -52.5 20.5c-17.333 0 -35 -7 -53 -21s-35.667 -31.667 -53 -53l-51 46c12.667 14 25.834 27.5 39.501 40.5s28.167 24.667 43.5 35
s31.5 18.5 48.5 24.5s35.5 9 55.5 9c22 0 42.333 -6.83301 61 -20.5s37.334 -33.5 56.001 -59.5s38.834 -58 60.501 -96l74.5 -130c9.33301 -16 20.333 -27.667 33 -35s26.334 -11 41.001 -11v-72zM225.996 546c0 16 5.33301 29.333 16 40s23.667 16 39 16
s28.166 -5.33301 38.499 -16s15.5 -24 15.5 -40c0 -15.333 -5.16699 -28 -15.5 -38s-23.166 -15 -38.499 -15s-28.333 5 -39 15s-16 22.667 -16 38z" />
    <glyph glyph-name="khamedi" unicode="&#x62e;" horiz-adv-x="656" arabic-form="medial" 
d="M671 0h-685.004l-1 72h502c-19.333 39.333 -38 75.5 -56 108.5s-35.5 61.5 -52.5 85.5s-34 42.833 -51 56.5s-34.5 20.5 -52.5 20.5c-17.333 0 -35 -7 -53 -21s-35.667 -31.667 -53 -53l-51 46c12.667 14 25.834 27.5 39.501 40.5s28.167 24.667 43.5 35
s31.5 18.5 48.5 24.5s35.5 9 55.5 9c22 0 42.333 -6.83301 61 -20.5s37.334 -33.5 56.001 -59.5s38.834 -58 60.501 -96l74.5 -130c9.33301 -16 20.333 -27.667 33 -35s26.334 -11 41.001 -11h40v-72zM225.996 546c0 16 5.33301 29.333 16 40s23.667 16 39 16
s28.166 -5.33301 38.499 -16s15.5 -24 15.5 -40c0 -15.333 -5.16699 -28 -15.5 -38s-23.166 -15 -38.499 -15s-28.333 5 -39 15s-16 22.667 -16 38z" />
    <glyph glyph-name="dalfina" unicode="&#x62f;" horiz-adv-x="568" arabic-form="final" 
d="M55 87c7.33301 -2.66699 15.333 -5.33301 24 -8c7.33301 -2 16 -3.66699 26 -5s21 -2 33 -2h241c0.666992 19.333 -1.5 42.333 -6.5 69s-14.5 54 -28.5 82s-33.333 54.833 -58 80.5s-56.667 47.167 -96 64.5l23 84c41.333 -16 79.666 -40.333 114.999 -73
c14.667 -14 29.5 -30.667 44.5 -50s29 -41.5 42 -66.5s24.5 -53.333 34.5 -85s17.333 -66.834 22 -105.501h112v-72h-454c-12 0 -22.667 0.833008 -32 2.5s-17.666 3.5 -24.999 5.5c-8 2.66699 -15.333 5.33398 -22 8.00098z" />
    <glyph glyph-name="zalfina" unicode="&#x630;" horiz-adv-x="568" arabic-form="final" 
d="M55 87c7.33301 -2.66699 15.333 -5.33301 24 -8c7.33301 -2 16 -3.66699 26 -5s21 -2 33 -2h241c0.666992 19.333 -1.5 42.333 -6.5 69s-14.5 54 -28.5 82s-33.333 54.833 -58 80.5s-56.667 47.167 -96 64.5l23 84c41.333 -16 79.666 -40.333 114.999 -73
c14.667 -14 29.5 -30.667 44.5 -50s29 -41.5 42 -66.5s24.5 -53.333 34.5 -85s17.333 -66.834 22 -105.501h112v-72h-454c-12 0 -22.667 0.833008 -32 2.5s-17.666 3.5 -24.999 5.5c-8 2.66699 -15.333 5.33398 -22 8.00098zM167 546.001c0 16 5.33301 29.333 16 40
s23.667 16 39 16s28.166 -5.33301 38.499 -16s15.5 -24 15.5 -40c0 -15.333 -5.16699 -28 -15.5 -38s-23.166 -15 -38.499 -15s-28.333 5 -39 15s-16 22.667 -16 38z" />
    <glyph glyph-name="rafina" unicode="&#x631;" horiz-adv-x="340" arabic-form="final" 
d="M213 429c4.66699 -28.667 8.99805 -58.832 12.998 -90.499s7.16699 -63.334 9.5 -95.001s4.33301 -62.167 6 -91.5s2.83398 -56 3.50098 -80h110v-72h-110c-1.33301 -17.333 -5.83301 -38.5 -13.5 -63.5s-21 -49.5 -40 -73.5s-45.167 -44.667 -78.5 -62
s-76.333 -27 -129 -29l-19 57c37.333 6 71 17 101 33c12.667 6.66699 25 14.834 37 24.501s22.667 21.167 32 34.5s17 28.666 23 45.999s9 37 9 59c0 60 -1.66699 123 -5 189s-12.666 129.333 -27.999 190z" />
    <glyph glyph-name="zafina" unicode="&#x632;" horiz-adv-x="340" arabic-form="final" 
d="M213 429c4.66699 -28.667 8.99805 -58.832 12.998 -90.499s7.16699 -63.334 9.5 -95.001s4.33301 -62.167 6 -91.5s2.83398 -56 3.50098 -80h110v-72h-110c-1.33301 -17.333 -5.83301 -38.5 -13.5 -63.5s-21 -49.5 -40 -73.5s-45.167 -44.667 -78.5 -62
s-76.333 -27 -129 -29l-19 57c37.333 6 71 17 101 33c12.667 6.66699 25 14.834 37 24.501s22.667 21.167 32 34.5s17 28.666 23 45.999s9 37 9 59c0 60 -1.66699 123 -5 189s-12.666 129.333 -27.999 190zM87.998 546.002c0 16 5.33301 29.333 16 40s23.667 16 39 16
s28.166 -5.33301 38.499 -16s15.5 -24 15.5 -40c0 -15.333 -5.16699 -28 -15.5 -38s-23.166 -15 -38.499 -15s-28.333 5 -39 15s-16 22.667 -16 38z" />
    <glyph glyph-name="seenfina" unicode="&#x633;" horiz-adv-x="1152" arabic-form="final" 
d="M191 233c-17.333 -28.667 -33 -60.8301 -47 -96.4971s-21 -70.5 -21 -104.5c0 -64 16.167 -110.833 48.5 -140.5s76.5 -44.5 132.5 -44.5c22.667 0 44 3.5 64 10.5s38 16.667 54 29s29.5 26.666 40.5 42.999s18.833 34.166 23.5 53.499l4 21
c1.33301 7.33301 2 14.666 2 21.999v376l77 22v-352h150v330l77 22v-352h151v330l77 22v-352h143v-72h-598c-14 -80.667 -43.833 -139 -89.5 -175s-104.5 -54 -176.5 -54c-39.333 0 -74.833 6.33301 -106.5 19s-58.667 29.167 -81 49.5s-39.666 43 -51.999 68
s-18.5 49.833 -18.5 74.5c0 36 3.16699 67 9.5 93s14.166 48.833 23.499 68.5s19 36.5 29 50.5l27 39h57z" />
    <glyph glyph-name="seenini" unicode="&#x633;" horiz-adv-x="733" arabic-form="initial" 
d="M145 72v330l77 22v-352h150v330l77 22v-352h151v330l77 22v-424h-692v72h160z" />
    <glyph glyph-name="seenmedi" unicode="&#x633;" horiz-adv-x="805" arabic-form="medial" 
d="M145 72v330l77 22v-352h150v330l77 22v-352h151v330l77 22v-352h143v-72h-835v72h160z" />
    <glyph glyph-name="sheenfina" unicode="&#x634;" horiz-adv-x="1152" arabic-form="final" 
d="M191 233c-17.333 -28.667 -33 -60.8301 -47 -96.4971s-21 -70.5 -21 -104.5c0 -64 16.167 -110.833 48.5 -140.5s76.5 -44.5 132.5 -44.5c22.667 0 44 3.5 64 10.5s38 16.667 54 29s29.5 26.666 40.5 42.999s18.833 34.166 23.5 53.499l4 21
c1.33301 7.33301 2 14.666 2 21.999v376l77 22v-352h150v330l77 22v-352h151v330l77 22v-352h143v-72h-598c-14 -80.667 -43.833 -139 -89.5 -175s-104.5 -54 -176.5 -54c-39.333 0 -74.833 6.33301 -106.5 19s-58.667 29.167 -81 49.5s-39.666 43 -51.999 68
s-18.5 49.833 -18.5 74.5c0 36 3.16699 67 9.5 93s14.166 48.833 23.499 68.5s19 36.5 29 50.5l27 39h57zM621 546.004c0 16 5.33301 29.333 16 40s23.667 16 39 16s28.166 -5.33301 38.499 -16s15.5 -24 15.5 -40c0 -15.333 -5.16699 -28 -15.5 -38
s-23.166 -15 -38.499 -15s-28.333 5 -39 15s-16 22.667 -16 38zM785 546.004c0 16 5.33301 29.333 16 40s23.667 16 39 16s28.166 -5.33301 38.499 -16s15.5 -24 15.5 -40c0 -15.333 -5.16699 -28 -15.5 -38s-23.166 -15 -38.499 -15s-28.333 5 -39 15s-16 22.667 -16 38z
M701 682.004c0 16 5.33301 29.333 16 40s23.667 16 39 16s28.166 -5.33301 38.499 -16s15.5 -24 15.5 -40c0 -15.333 -5.16699 -28 -15.5 -38s-23.166 -15 -38.499 -15s-28.333 5 -39 15s-16 22.667 -16 38z" />
    <glyph glyph-name="sheenini" unicode="&#x634;" horiz-adv-x="733" arabic-form="initial" 
d="M145 72v330l77 22v-352h150v330l77 22v-352h151v330l77 22v-424h-692v72h160zM275 546c0 16 5.33301 29.333 16 40s23.667 16 39 16s28.166 -5.33301 38.499 -16s15.5 -24 15.5 -40c0 -15.333 -5.16699 -28 -15.5 -38s-23.166 -15 -38.499 -15s-28.333 5 -39 15
s-16 22.667 -16 38zM439 546c0 16 5.33301 29.333 16 40s23.667 16 39 16s28.166 -5.33301 38.499 -16s15.5 -24 15.5 -40c0 -15.333 -5.16699 -28 -15.5 -38s-23.166 -15 -38.499 -15s-28.333 5 -39 15s-16 22.667 -16 38zM355 682c0 16 5.33301 29.333 16 40
s23.667 16 39 16s28.166 -5.33301 38.499 -16s15.5 -24 15.5 -40c0 -15.333 -5.16699 -28 -15.5 -38s-23.166 -15 -38.499 -15s-28.333 5 -39 15s-16 22.667 -16 38z" />
    <glyph glyph-name="sheenmedi" unicode="&#x634;" horiz-adv-x="805" arabic-form="medial" 
d="M145 72v330l77 22v-352h150v330l77 22v-352h151v330l77 22v-352h143v-72h-835v72h160zM288 546c0 16 5.33301 29.333 16 40s23.667 16 39 16s28.166 -5.33301 38.499 -16s15.5 -24 15.5 -40c0 -15.333 -5.16699 -28 -15.5 -38s-23.166 -15 -38.499 -15s-28.333 5 -39 15
s-16 22.667 -16 38zM452 546c0 16 5.33301 29.333 16 40s23.667 16 39 16s28.166 -5.33301 38.499 -16s15.5 -24 15.5 -40c0 -15.333 -5.16699 -28 -15.5 -38s-23.166 -15 -38.499 -15s-28.333 5 -39 15s-16 22.667 -16 38zM368 682c0 16 5.33301 29.333 16 40
s23.667 16 39 16s28.166 -5.33301 38.499 -16s15.5 -24 15.5 -40c0 -15.333 -5.16699 -28 -15.5 -38s-23.166 -15 -38.499 -15s-28.333 5 -39 15s-16 22.667 -16 38z" />
    <glyph glyph-name="sadfina" unicode="&#x635;" horiz-adv-x="1170" arabic-form="final" 
d="M1023 72l0.000976562 91.002c0 18.667 -1.5 37 -4.5 55s-9.33301 34.167 -19 48.5s-23 25.833 -40 34.5s-39.5 13 -67.5 13c-19.333 0 -42.5 -6 -69.5 -18s-55.167 -28.833 -84.5 -50.5s-58.833 -47.334 -88.5 -77.001s-56.834 -61.834 -81.501 -96.501h455zM1099 72.002
l86 0.00195312v-72h-616c-14 -80.667 -43.833 -139 -89.5 -175s-104.5 -54 -176.5 -54c-39.333 0 -74.833 6.33301 -106.5 19s-58.667 29.167 -81 49.5s-39.666 43 -51.999 68s-18.5 49.833 -18.5 74.5c0 36 3.16699 67 9.5 93s14.166 48.833 23.499 68.5s19 36.5 29 50.5
l27 39h57c-17.333 -28.667 -33 -60.834 -47 -96.501s-21 -70.5 -21 -104.5c0 -64 16.167 -110.833 48.5 -140.5s76.5 -44.5 132.5 -44.5c22.667 0 44 3.5 64 10.5s38 16.667 54 29s29.5 26.666 40.5 42.999s18.833 34.166 23.5 53.499l4 21
c1.33301 7.33301 2 14.666 2 21.999v18v267l77 25v-63v-88c65.333 68.667 127.166 119.334 185.499 152.001s113.5 49 165.5 49c38 0 68.5 -8.83301 91.5 -26.5s41 -40.167 54 -67.5s21.833 -57.166 26.5 -89.499s7.33398 -63.5 8.00098 -93.5z" />
    <glyph glyph-name="sadini" unicode="&#x635;" horiz-adv-x="752" arabic-form="initial" 
d="M610 72l0.000976562 91.002c0 18.667 -1.5 37 -4.5 55s-9.33301 34.167 -19 48.5s-23 25.833 -40 34.5s-39.5 13 -67.5 13c-19.333 0 -42.5 -6 -69.5 -18s-55.167 -28.833 -84.5 -50.5s-58.833 -47.334 -88.5 -77.001s-56.834 -61.834 -81.501 -96.501h455z
M79.001 72.002v238.998l77 25v-151c65.333 68.667 127.166 119.334 185.499 152.001s113.5 49 165.5 49c38 0 68.5 -8.83301 91.5 -26.5s41 -40.167 54 -67.5s21.833 -57.166 26.5 -89.499s7.33398 -63.5 8.00098 -93.5v-109h-702v72h94z" />
    <glyph glyph-name="sadmedi" unicode="&#x635;" horiz-adv-x="759" arabic-form="medial" 
d="M610 72l0.000976562 91.002c0 18.667 -1.5 37 -4.5 55s-9.33301 34.167 -19 48.5s-23 25.833 -40 34.5s-39.5 13 -67.5 13c-19.333 0 -42.5 -6 -69.5 -18s-55.167 -28.833 -84.5 -50.5s-58.833 -47.334 -88.5 -77.001s-56.834 -61.834 -81.501 -96.501h455z
M79.001 72.002v238.998l77 25v-151c65.333 68.667 127.166 119.334 185.499 152.001s113.5 49 165.5 49c38 0 68.5 -8.83301 91.5 -26.5s41 -40.167 54 -67.5s21.833 -57.166 26.5 -89.499s7.33398 -63.5 8.00098 -93.5v-37h87v-72h-789v72h94z" />
    <glyph glyph-name="dadfina" unicode="&#x636;" horiz-adv-x="1170" arabic-form="final" 
d="M1023 72l0.000976562 91.002c0 18.667 -1.5 37 -4.5 55s-9.33301 34.167 -19 48.5s-23 25.833 -40 34.5s-39.5 13 -67.5 13c-19.333 0 -42.5 -6 -69.5 -18s-55.167 -28.833 -84.5 -50.5s-58.833 -47.334 -88.5 -77.001s-56.834 -61.834 -81.501 -96.501h455zM1099 72.002
l86 0.00195312v-72h-616c-14 -80.667 -43.833 -139 -89.5 -175s-104.5 -54 -176.5 -54c-39.333 0 -74.833 6.33301 -106.5 19s-58.667 29.167 -81 49.5s-39.666 43 -51.999 68s-18.5 49.833 -18.5 74.5c0 36 3.16699 67 9.5 93s14.166 48.833 23.499 68.5s19 36.5 29 50.5
l27 39h57c-17.333 -28.667 -33 -60.834 -47 -96.501s-21 -70.5 -21 -104.5c0 -64 16.167 -110.833 48.5 -140.5s76.5 -44.5 132.5 -44.5c22.667 0 44 3.5 64 10.5s38 16.667 54 29s29.5 26.666 40.5 42.999s18.833 34.166 23.5 53.499l4 21
c1.33301 7.33301 2 14.666 2 21.999v18v267l77 25v-63v-88c65.333 68.667 127.166 119.334 185.499 152.001s113.5 49 165.5 49c38 0 68.5 -8.83301 91.5 -26.5s41 -40.167 54 -67.5s21.833 -57.166 26.5 -89.499s7.33398 -63.5 8.00098 -93.5zM787.001 546.004
c0 16 5.33301 29.333 16 40s23.667 16 39 16s28.166 -5.33301 38.499 -16s15.5 -24 15.5 -40c0 -15.333 -5.16699 -28 -15.5 -38s-23.166 -15 -38.499 -15s-28.333 5 -39 15s-16 22.667 -16 38z" />
    <glyph glyph-name="dadini" unicode="&#x636;" horiz-adv-x="752" arabic-form="initial" 
d="M610 72l0.000976562 91.002c0 18.667 -1.5 37 -4.5 55s-9.33301 34.167 -19 48.5s-23 25.833 -40 34.5s-39.5 13 -67.5 13c-19.333 0 -42.5 -6 -69.5 -18s-55.167 -28.833 -84.5 -50.5s-58.833 -47.334 -88.5 -77.001s-56.834 -61.834 -81.501 -96.501h455z
M79.001 72.002v238.998l77 25v-151c65.333 68.667 127.166 119.334 185.499 152.001s113.5 49 165.5 49c38 0 68.5 -8.83301 91.5 -26.5s41 -40.167 54 -67.5s21.833 -57.166 26.5 -89.499s7.33398 -63.5 8.00098 -93.5v-109h-702v72h94zM353.001 546
c0 16 5.33301 29.333 16 40s23.667 16 39 16s28.166 -5.33301 38.499 -16s15.5 -24 15.5 -40c0 -15.333 -5.16699 -28 -15.5 -38s-23.166 -15 -38.499 -15s-28.333 5 -39 15s-16 22.667 -16 38z" />
    </font>
</defs>
</svg>
